<?xml version="1.0" encoding="utf-8"?>
<!-- Generator: Adobe Illustrator 27.5.0, SVG Export Plug-In . SVG Version: 6.00 Build 0)  -->
<svg version="1.1" xmlns="http://www.w3.org/2000/svg" xmlns:xlink="http://www.w3.org/1999/xlink" x="0px" y="0px"
	 viewBox="0 0 500 500" style="enable-background:new 0 0 500 500;" xml:space="preserve">
<g id="Background_Simple">
	<g>
		<path style="fill:#92E3A9;" d="M488.615,205.942c5.991,99.538-39.426,194.829-118.145,243.387
			c-13.959,8.611-29.408,16.053-46.47,21.75c-126,42.066-173,6.642-206-37.638c-33-44.28-2-119.557-40-150.554
			C40,251.89-6,207.61,13,142.296S79,33.808,123,38.237c44,4.428,90,61.993,121,24.354c31-37.639,130-74.17,195-11.07
			C473.737,85.242,485.34,151.528,488.615,205.942z"/>
		<path style="opacity:0.7;fill:#FFFFFF;" d="M488.615,205.942c5.991,99.538-39.426,194.829-118.145,243.387
			c-13.959,8.611-29.408,16.053-46.47,21.75c-126,42.066-173,6.642-206-37.638c-33-44.28-2-119.557-40-150.554
			C40,251.89-6,207.61,13,142.296S79,33.808,123,38.237c44,4.428,90,61.993,121,24.354c31-37.639,130-74.17,195-11.07
			C473.737,85.242,485.34,151.528,488.615,205.942z"/>
	</g>
</g>
<g id="Shine">
	<g>
		<line style="fill:none;stroke:#263238;stroke-miterlimit:10;" x1="225.117" y1="59.143" x2="179.076" y2="24.659"/>
		<line style="fill:none;stroke:#263238;stroke-miterlimit:10;" x1="349.825" y1="152.545" x2="229.643" y2="62.533"/>
		<line style="fill:none;stroke:#263238;stroke-miterlimit:10;" x1="362.688" y1="162.179" x2="356.916" y2="157.856"/>
		<line style="fill:none;stroke:#263238;stroke-miterlimit:10;" x1="294.018" y1="143.788" x2="190.41" y2="105.508"/>
		<line style="fill:none;stroke:#263238;stroke-miterlimit:10;" x1="343.797" y1="162.179" x2="300.698" y2="146.256"/>
		<line style="fill:none;stroke:#263238;stroke-miterlimit:10;" x1="180.397" y1="165.323" x2="168.497" y2="165.201"/>
		<line style="fill:none;stroke:#263238;stroke-miterlimit:10;" x1="293.979" y1="166.482" x2="189.822" y2="165.419"/>
		<line style="fill:none;stroke:#263238;stroke-miterlimit:10;" x1="316.596" y1="166.712" x2="301.519" y2="166.559"/>
		<line style="fill:none;stroke:#263238;stroke-miterlimit:10;" x1="355.659" y1="114.704" x2="337.753" y2="51.105"/>
		<line style="fill:none;stroke:#263238;stroke-miterlimit:10;" x1="359.665" y1="128.932" x2="357.361" y2="120.749"/>
		<line style="fill:none;stroke:#263238;stroke-miterlimit:10;" x1="389.308" y1="154.427" x2="411.046" y2="134.977"/>
		<line style="fill:none;stroke:#263238;stroke-miterlimit:10;" x1="382.333" y1="160.668" x2="386.594" y2="156.855"/>
		<line style="fill:none;stroke:#263238;stroke-miterlimit:10;" x1="444.591" y1="100.824" x2="486.607" y2="59.417"/>
		<line style="fill:none;stroke:#263238;stroke-miterlimit:10;" x1="434.47" y1="110.798" x2="441.5" y2="103.87"/>
		<line style="fill:none;stroke:#263238;stroke-miterlimit:10;" x1="400.858" y1="22.773" x2="402.735" y2="10.302"/>
		<line style="fill:none;stroke:#263238;stroke-miterlimit:10;" x1="391.28" y1="86.445" x2="400.214" y2="27.06"/>
		<line style="fill:none;stroke:#263238;stroke-miterlimit:10;" x1="389.889" y1="95.686" x2="390.676" y2="90.454"/>
		<line style="fill:none;stroke:#263238;stroke-miterlimit:10;" x1="462.174" y1="140.993" x2="473.006" y2="137.244"/>
		<line style="fill:none;stroke:#263238;stroke-miterlimit:10;" x1="415.427" y1="157.175" x2="455.279" y2="143.38"/>
		<line style="fill:none;stroke:#263238;stroke-miterlimit:10;" x1="394.423" y1="164.446" x2="411.202" y2="158.637"/>
		<line style="fill:none;stroke:#263238;stroke-miterlimit:10;" x1="297.84" y1="70.306" x2="323.396" y2="100.219"/>
		<line style="fill:none;stroke:#263238;stroke-miterlimit:10;" x1="256.903" y1="22.392" x2="294.818" y2="66.77"/>
	</g>
</g>
<g id="Flag">
	<g>
		<path style="fill:#263238;stroke:#263238;stroke-miterlimit:10;" d="M371.665,109.213L371.665,109.213
			c-0.586,0-1.06,0.475-1.06,1.061v61.261h2.121v-61.261C372.725,109.687,372.251,109.213,371.665,109.213z"/>
		<path style="fill:#92E3A9;stroke:#263238;stroke-miterlimit:10;" d="M372.725,110.273c0,0,2.276,3.884,9.584,3.041
			c7.308-0.843,11.524-4.778,19.676-1.687c8.151,3.092,7.308,6.465,12.086,7.589c4.778,1.124,8.151,1.405,8.151,1.405
			s-6.746,2.53-11.524,5.34c-4.778,2.811-11.524-1.405-15.178,0.281c-3.654,1.687-7.308,6.184-12.368,7.308
			c-5.059,1.124-10.329-1.687-10.329-1.687L372.725,110.273z"/>
	</g>
</g>
<g id="Clouds">
	<g>
		<path style="fill:none;stroke:#263238;stroke-miterlimit:10;" d="M129.853,77.346c0,0-4.319-12.956-20.36-14.807
			c-16.041-1.851-13.573,7.404-18.509,10.488c-4.936,3.085-9.872-1.851-15.424-0.617c-5.553,1.234-6.787,6.17-9.872,8.021
			c-3.085,1.851-8.021-1.851-12.956-1.234c-4.936,0.617-6.17,4.319-8.021,5.553c-1.851,1.234-8.021,1.851-8.021,1.851h121.543
			c0,0-3.085-10.489-12.34-12.956C136.64,71.176,134.172,76.729,129.853,77.346z"/>
		<path style="fill:none;stroke:#263238;stroke-miterlimit:10;" d="M143.895,100.614c0,0-2.355-7.065-11.102-8.074
			c-8.747-1.009-7.401,4.037-10.093,5.719s-5.383-1.009-8.411-0.336c-3.028,0.673-3.701,3.364-5.383,4.374
			c-1.682,1.009-4.374-1.009-7.065-0.673c-2.691,0.336-3.364,2.355-4.374,3.028c-1.009,0.673-4.373,1.009-4.373,1.009h66.276
			c0,0-1.682-5.719-6.729-7.065C147.596,97.25,146.25,100.278,143.895,100.614z"/>
		<path style="fill:none;stroke:#263238;stroke-miterlimit:10;" d="M351.809,24.646c0,0-2.355-7.065-11.102-8.074
			c-8.747-1.009-7.401,4.037-10.093,5.719c-2.691,1.682-5.383-1.009-8.411-0.336c-3.028,0.673-3.701,3.364-5.383,4.374
			c-1.682,1.009-4.374-1.009-7.065-0.673c-2.691,0.336-3.364,2.355-4.374,3.028c-1.009,0.673-4.374,1.009-4.374,1.009h66.276
			c0,0-1.682-5.719-6.729-7.065C355.51,21.281,354.164,24.309,351.809,24.646z"/>
		<path style="fill:none;stroke:#263238;stroke-miterlimit:10;" d="M472.559,158.19c0,0-2.355-7.065-11.102-8.074
			c-8.747-1.009-7.401,4.037-10.093,5.719c-2.691,1.682-5.383-1.009-8.411-0.336c-3.028,0.673-3.701,3.364-5.383,4.374
			c-1.682,1.009-4.374-1.009-7.065-0.673s-3.364,2.355-4.374,3.028c-1.009,0.673-4.374,1.009-4.374,1.009h66.276
			c0,0-1.682-5.719-6.728-7.065S474.914,157.854,472.559,158.19z"/>
	</g>
</g>
<g id="Character_2">
	<g>
		<g>
			<path style="fill:#92E3A9;" d="M355.569,364.724l-18.947-2.88l-15.461-1.97l-17.128-1.819l-14.4-1.212l-23.343-1.667
				l-18.947-0.584c-23.159,4.381-65.698,18.111-100.118,31.375c-17.545,6.761-33.064,13.631-42.377,17.901
				c2.546,10.691,6.575,20.75,13.152,29.575c33,44.281,80,79.705,206,37.639c6.081-2.03,11.947-4.291,17.624-6.739l4.85-11.398
				l10.307-20.16l25.314-43.806l10.762-16.977l-15.31-3.486L355.569,364.724z"/>
			<path style="fill:#92E3A9;" d="M454.532,309.027l-15.331-9.824l-15.927-8.633l-15.778-7.293l-18.01-7.294l-18.308-6.103
				l-20.392-5.358l-14.587-2.977l-15.331-0.447l-27.685,0.744l-37.433,2.313c0,0,16.125,7.81,34.265,18.896
				c18.14,11.086,31.997,30.233,40.563,42.327c8.566,12.093,18.14,37.792,18.14,37.792l11.297,1.972l22.178,4.168l16.373,3.87
				l19.648,4.465l21.317,6.161c13.237-18.772,24.052-39.503,32.165-61.555L454.532,309.027z"/>
			<path style="fill:#92E3A9;" d="M160.053,276.871l2.435-6.291l4.262-8.523l7.305-11.161l8.726-10.755l11.567-10.552l11.77-9.74
				l-7.711-2.638l-27.598-6.494l-6.697,1.624l-10.349,2.638l-18.872,6.291l-14.814,6.494l-17.655,9.943L79.491,252.52
				c-2.058,1.266-14.236,10.802-19.497,14.938C66.007,272.94,72.1,278.074,78,282.887c3.881,3.165,7.032,6.799,9.615,10.808
				l5.676-1.604l16.031-4.667l23.945-5.276L160.053,276.871z"/>
			<polygon style="fill:#92E3A9;" points="366.259,171.822 350.278,184.553 336.735,197.284 322.921,212.723 311.274,226.266 
				304.232,236.83 298.002,246.039 295.564,250.102 318.046,260.665 320.868,261.098 327.526,260.665 338.631,232.225 
				347.569,214.89 358.946,195.658 369.509,180.49 376.552,171.822 			"/>
		</g>
		<g>
			<path style="fill:none;stroke:#263238;stroke-miterlimit:10;" d="M171.562,210.991c0,0-57.946,4.874-129.971,72.567"/>
			<path style="fill:none;stroke:#263238;stroke-miterlimit:10;" d="M206.221,219.656c0,0-36.284,24.911-46.031,56.862"/>
		</g>
		<g>
			<path style="fill:none;stroke:#263238;stroke-miterlimit:10;" d="M335.282,478.96c12.56-35.65,45.26-87.9,57.75-107.23"/>
			<path style="fill:none;stroke:#263238;stroke-miterlimit:10;" d="M51.472,431.42c0,0,93.07-54.03,195.87-76.83"/>
		</g>
		<g>
			<path style="fill:none;stroke:#263238;stroke-miterlimit:10;" d="M254.066,264.31c0,0,70.758,22.418,94.577,99.481"/>
			<path style="fill:none;stroke:#263238;stroke-miterlimit:10;" d="M336.033,261.508c0,0,101.583,16.113,154.826,80.566"/>
		</g>
		<g>
			<path style="fill:none;stroke:#263238;stroke-miterlimit:10;" d="M295.202,250.388c0,0,23.284-42.752,71.497-78.443"/>
			<path style="fill:none;stroke:#263238;stroke-miterlimit:10;" d="M376.65,171.45c0,0-37.618,47.005-48.889,89.583"/>
		</g>
	</g>
</g>
<g id="Plants">
	<g>
		<path style="fill:#263238;" d="M453.748,344.392c-0.925-0.494-2.125-0.338-3.288,0.426c-1.983,1.219-4.599,4.609-5.224,5.74
			c-0.824,0.684-1.616,1.401-2.372,2.15c0.663-1.341,2.44-4.996,0.944-7.246c-2.086-2.844-4.712,1.251-3.555,3.835
			c0.87,2.158,1.29,3.879,1.254,4.831c-0.972,1.07-1.879,2.192-2.716,3.362c0.413-1.391,1.569-5.325-0.309-7.306
			c-2.534-2.451-4.402,1.994-2.827,4.344c1.231,1.989,1.937,3.619,2.056,4.558c-0.779,1.217-1.485,2.478-2.118,3.775
			c0.171-1.41,0.674-5.523-1.53-7.17c-2.907-1.993-3.998,2.689-2.055,4.744c1.55,1.759,2.519,3.252,2.79,4.159
			c-0.566,1.327-1.055,2.687-1.465,4.072c-0.066-1.439-0.259-5.57-2.7-6.818c-3.199-1.481-3.497,3.329-1.239,5.038
			c1.817,1.475,3.02,2.788,3.441,3.643c-0.338,1.403-0.598,2.828-0.77,4.268c-0.316-1.466-1.206-5.467-3.793-6.275
			c-3.403-0.926-2.896,3.909-0.38,5.227c2.022,1.148,3.422,2.242,3.992,3.024c-0.111,1.69-0.109,3.394,0.018,5.103
			c0.011,0.155,0.141,0.272,0.293,0.272c0.007,0,0.015,0,0.022-0.001c0.162-0.012,0.283-0.153,0.271-0.315
			c-0.125-1.685-0.127-3.365-0.018-5.031c0.668-0.689,2.24-1.486,4.462-1.867c2.629-0.55,4.688-2.896,1.381-3.792
			c-2.697-0.838-4.886,2.179-5.646,3.559c0.171-1.377,0.424-2.739,0.749-4.082c0.782-0.548,2.455-1.044,4.687-1.035
			c2.681-0.084,5.096-2.026,1.987-3.466c-2.494-1.262-5.123,1.25-6.122,2.477c0.394-1.3,0.857-2.577,1.391-3.824
			c0.862-0.402,2.59-0.602,4.782-0.217c2.654,0.373,5.356-1.132,2.532-3.073c-2.247-1.656-5.25,0.365-6.439,1.401
			c0.6-1.208,1.265-2.383,1.994-3.519c0.915-0.253,2.653-0.162,4.755,0.586c2.553,0.813,5.473-0.226,3.016-2.614
			c-1.953-2.021-5.287-0.491-6.615,0.329c0.794-1.098,1.654-2.15,2.569-3.157c0.943-0.105,2.653,0.27,4.615,1.364
			c2.383,1.226,5.457,0.678,3.441-2.091c-1.596-2.336-5.195-1.344-6.633-0.753c0.763-0.749,1.559-1.468,2.391-2.151
			c1.103-0.407,4.395-1.485,5.735-1.829c0.798-0.274,3.398-1.298,3.355-2.976C454.849,345.408,454.415,344.747,453.748,344.392z"/>
		<path style="fill:#263238;" d="M462.462,366.607c-0.422-0.588-1.214-0.858-2.167-0.74c-1.601,0.15-4.256,1.452-4.989,1.963
			c-0.719,0.172-1.429,0.375-2.126,0.608c0.82-0.629,3.036-2.351,2.796-4.202c-0.425-2.399-3.301-0.663-3.373,1.292
			c-0.119,1.603-0.384,2.797-0.697,3.376c-0.928,0.366-1.833,0.785-2.709,1.255c0.68-0.736,2.598-2.821,2.038-4.622
			c-0.822-2.292-3.336-0.108-3.078,1.829c0.156,1.608,0.096,2.833-0.117,3.452c-0.854,0.516-1.676,1.083-2.464,1.693
			c0.536-0.822,2.103-3.216,1.24-4.91c-1.193-2.122-3.298,0.446-2.721,2.313c0.424,1.563,0.569,2.784,0.46,3.428
			c-0.756,0.649-1.473,1.343-2.15,2.076c0.398-0.912,1.539-3.53,0.407-5.049c-1.53-1.894-3.183,0.996-2.305,2.744
			c0.676,1.469,1.021,2.649,1.021,3.307c-0.638,0.766-1.233,1.57-1.78,2.41c0.251-1.005,0.921-3.756-0.435-5.045
			c-1.826-1.612-2.987,1.538-1.831,3.123c0.902,1.328,1.436,2.434,1.551,3.092c-0.584,1.013-1.103,2.07-1.546,3.168
			c-0.04,0.099,0.004,0.211,0.098,0.258c0.005,0.002,0.009,0.004,0.014,0.006c0.104,0.042,0.222-0.008,0.264-0.112
			c0.437-1.082,0.948-2.124,1.525-3.123c0.624-0.224,1.841-0.237,3.334,0.205c1.797,0.461,3.788-0.364,2.013-1.928
			c-1.415-1.342-3.692-0.141-4.584,0.482c0.526-0.801,1.099-1.568,1.71-2.301c0.652-0.101,1.84,0.103,3.22,0.789
			c1.687,0.766,3.776,0.3,2.289-1.541c-1.16-1.543-3.556-0.789-4.55-0.333c0.641-0.685,1.317-1.335,2.029-1.945
			c0.657,0.014,1.788,0.418,3.03,1.325c1.531,1.041,3.664,0.933,2.506-1.131c-0.887-1.712-3.365-1.376-4.417-1.097
			c0.74-0.565,1.511-1.09,2.31-1.572c0.644,0.122,1.693,0.71,2.767,1.814c1.334,1.283,3.461,1.53,2.666-0.699
			c-0.593-1.848-3.126-1.918-4.199-1.815c0.827-0.438,1.681-0.828,2.555-1.172c0.616,0.223,1.561,0.977,2.443,2.254
			c1.102,1.487,3.175,2.086,2.77-0.246c-0.276-1.934-2.809-2.418-3.88-2.491c0.701-0.231,1.414-0.434,2.138-0.603
			c0.808,0.084,3.177,0.421,4.112,0.617c0.578,0.074,2.502,0.232,2.987-0.82C462.834,367.573,462.767,367.031,462.462,366.607z"/>
	</g>
	<g>
		<path style="fill:#263238;" d="M184.873,326.529c-0.701-0.249-1.528-0.012-2.264,0.647c-1.263,1.065-2.742,3.723-3.061,4.583
			c-0.506,0.568-0.986,1.155-1.438,1.76c0.323-1.012,1.184-3.766-0.104-5.187c-1.766-1.776-3.176,1.377-2.09,3.069
			c0.839,1.423,1.316,2.587,1.392,3.259c-0.569,0.854-1.087,1.738-1.551,2.648c0.143-1.02,0.538-3.905-0.99-5.097
			c-2.038-1.453-2.88,1.866-1.526,3.349c1.075,1.266,1.743,2.336,1.926,2.983c-0.418,0.937-0.78,1.897-1.087,2.875
			c-0.029-1.008-0.111-3.949-1.832-4.873c-2.252-1.092-2.523,2.311-0.941,3.548c1.274,1.071,2.113,2.017,2.399,2.625
			c-0.257,0.991-0.456,1.998-0.598,3.014c-0.199-1.003-0.771-3.883-2.617-4.501c-2.403-0.702-2.103,2.707-0.337,3.668
			c1.432,0.844,2.416,1.638,2.801,2.194c-0.089,1.021-0.12,2.049-0.089,3.078c-0.377-0.996-1.426-3.711-3.327-4.004
			c-2.487-0.29-1.62,3.051,0.286,3.71c1.541,0.592,2.64,1.212,3.123,1.701c0.101,1.198,0.283,2.395,0.553,3.581
			c0.024,0.107,0.127,0.176,0.234,0.16c0.005-0.001,0.01-0.002,0.015-0.003c0.112-0.026,0.183-0.137,0.157-0.25
			c-0.266-1.17-0.445-2.349-0.544-3.53c0.396-0.555,1.416-1.28,2.935-1.783c1.787-0.664,2.985-2.529,0.568-2.808
			c-1.982-0.303-3.2,2.047-3.587,3.096c-0.025-0.985,0.008-1.968,0.094-2.945c0.491-0.468,1.613-0.993,3.181-1.223
			c1.874-0.343,3.364-1.962,1.028-2.644c-1.884-0.622-3.465,1.42-4.036,2.387c0.139-0.954,0.329-1.9,0.572-2.832
			c0.563-0.373,1.755-0.696,3.335-0.658c1.903-0.019,3.641-1.361,1.452-2.425c-1.753-0.925-3.647,0.812-4.372,1.665
			c0.293-0.911,0.636-1.807,1.028-2.682c0.616-0.274,1.846-0.394,3.4-0.092c1.879,0.3,3.819-0.738,1.841-2.154
			c-1.585-1.212-3.764,0.215-4.61,0.931c0.441-0.855,0.934-1.685,1.47-2.488c0.651-0.173,1.891-0.091,3.384,0.469
			c1.803,0.609,3.903-0.102,2.194-1.832c-1.368-1.471-3.79-0.394-4.737,0.173c0.456-0.607,0.939-1.196,1.451-1.763
			c0.732-0.403,2.928-1.508,3.833-1.891c0.531-0.277,2.248-1.271,2.04-2.444C185.753,327.125,185.379,326.708,184.873,326.529z"/>
		<path style="fill:#263238;" d="M193.342,341.204c-0.359-0.368-0.943-0.474-1.6-0.29c-1.108,0.275-2.835,1.47-3.295,1.906
			c-0.487,0.197-0.964,0.414-1.428,0.652c0.509-0.528,1.883-1.972,1.518-3.246c-0.552-1.639-2.388-0.116-2.232,1.264
			c0.086,1.138,0.026,2.005-0.132,2.444c-0.613,0.355-1.204,0.745-1.769,1.168c0.4-0.589,1.525-2.255,0.942-3.46
			c-0.82-1.522-2.354,0.277-1.967,1.61c0.279,1.112,0.367,1.979,0.283,2.436c-0.545,0.453-1.062,0.937-1.551,1.449
			c0.29-0.633,1.136-2.481,0.351-3.578c-1.062-1.364-2.268,0.662-1.666,1.912c0.463,1.053,0.694,1.894,0.685,2.359
			c-0.462,0.536-0.892,1.099-1.29,1.685c0.183-0.682,0.707-2.641-0.248-3.588c-1.275-1.168-2.13,1.036-1.328,2.17
			c0.63,0.96,0.997,1.752,1.066,2.214c-0.367,0.606-0.7,1.233-0.995,1.88c0.07-0.732,0.249-2.734-0.839-3.496
			c-1.453-0.939-1.934,1.396-0.955,2.386c0.774,0.837,1.266,1.557,1.416,2.007c-0.303,0.773-0.556,1.57-0.75,2.388
			c-0.018,0.074,0.025,0.148,0.096,0.171c0.004,0.001,0.007,0.002,0.01,0.003c0.077,0.018,0.155-0.029,0.174-0.107
			c0.192-0.806,0.441-1.592,0.74-2.354c0.414-0.223,1.268-0.361,2.363-0.209c1.31,0.134,2.621-0.656,1.209-1.567
			c-1.135-0.793-2.607,0.292-3.168,0.824c0.285-0.618,0.606-1.217,0.957-1.796c0.447-0.14,1.302-0.123,2.344,0.213
			c1.266,0.359,2.683-0.189,1.444-1.324c-0.978-0.961-2.58-0.178-3.229,0.247c0.378-0.549,0.783-1.077,1.218-1.58
			c0.463-0.06,1.3,0.104,2.267,0.61c1.185,0.569,2.671,0.267,1.64-1.06c-0.804-1.108-2.508-0.61-3.217-0.303
			c0.46-0.475,0.946-0.926,1.455-1.348c0.465,0.018,1.264,0.319,2.135,0.981c1.072,0.759,2.592,0.708,1.798-0.773
			c-0.612-1.235-2.398-1.016-3.141-0.83c0.534-0.395,1.093-0.759,1.67-1.093c0.456,0.091,1.199,0.521,1.954,1.324
			c0.931,0.927,2.45,1.128,1.919-0.466c-0.399-1.329-2.228-1.401-2.988-1.338c0.468-0.237,0.947-0.454,1.437-0.65
			c0.576-0.026,2.275-0.041,2.952-0.002c0.414-0.01,1.781-0.102,2.01-0.892C193.705,341.843,193.6,341.47,193.342,341.204z"/>
	</g>
	<g>
		<path style="fill:#263238;" d="M56.891,351.459c0.454-0.161,0.99-0.008,1.466,0.419c0.818,0.69,1.776,2.411,1.983,2.969
			c0.328,0.368,0.639,0.748,0.932,1.14c-0.209-0.655-0.767-2.439,0.067-3.36c1.144-1.15,2.057,0.892,1.354,1.988
			c-0.544,0.922-0.853,1.676-0.902,2.111c0.369,0.553,0.704,1.126,1.005,1.715c-0.092-0.661-0.349-2.529,0.641-3.302
			c1.32-0.941,1.865,1.209,0.988,2.169c-0.696,0.82-1.129,1.513-1.247,1.932c0.271,0.607,0.505,1.229,0.704,1.862
			c0.019-0.653,0.072-2.558,1.187-3.156c1.459-0.707,1.634,1.497,0.61,2.299c-0.826,0.694-1.369,1.306-1.554,1.7
			c0.166,0.642,0.296,1.294,0.387,1.952c0.129-0.65,0.5-2.515,1.695-2.916c1.556-0.454,1.362,1.754,0.218,2.376
			c-0.928,0.547-1.565,1.061-1.815,1.421c0.057,0.661,0.078,1.327,0.058,1.994c0.244-0.645,0.923-2.404,2.155-2.594
			c1.611-0.188,1.049,1.976-0.185,2.403c-0.998,0.383-1.71,0.785-2.023,1.102c-0.065,0.776-0.183,1.551-0.358,2.32
			c-0.016,0.07-0.082,0.114-0.152,0.104c-0.003,0-0.007-0.001-0.01-0.002c-0.073-0.017-0.118-0.089-0.102-0.162
			c0.173-0.758,0.288-1.522,0.353-2.287c-0.256-0.359-0.917-0.829-1.901-1.155c-1.158-0.43-1.933-1.638-0.368-1.819
			c1.284-0.197,2.073,1.326,2.324,2.005c0.016-0.638-0.005-1.275-0.061-1.908c-0.318-0.303-1.045-0.643-2.061-0.792
			c-1.214-0.222-2.179-1.271-0.666-1.713c1.221-0.403,2.244,0.92,2.615,1.546c-0.09-0.618-0.213-1.231-0.37-1.834
			c-0.365-0.242-1.137-0.451-2.16-0.426c-1.233-0.012-2.358-0.882-0.941-1.571c1.135-0.599,2.363,0.526,2.832,1.078
			c-0.19-0.59-0.412-1.17-0.666-1.737c-0.399-0.178-1.196-0.255-2.203-0.059c-1.217,0.194-2.474-0.478-1.192-1.396
			c1.027-0.785,2.438,0.139,2.986,0.603c-0.286-0.554-0.605-1.091-0.952-1.612c-0.421-0.112-1.225-0.059-2.192,0.304
			c-1.168,0.394-2.528-0.066-1.421-1.187c0.886-0.953,2.455-0.255,3.068,0.112c-0.296-0.393-0.608-0.775-0.94-1.142
			c-0.474-0.261-1.897-0.977-2.483-1.225c-0.344-0.179-1.456-0.823-1.322-1.583C56.32,351.846,56.563,351.575,56.891,351.459z"/>
		<path style="fill:#263238;" d="M51.405,360.966c0.232-0.238,0.611-0.307,1.036-0.188c0.718,0.178,1.836,0.952,2.134,1.234
			c0.315,0.128,0.624,0.268,0.925,0.422c-0.33-0.342-1.22-1.277-0.984-2.103c0.358-1.062,1.547-0.075,1.446,0.819
			c-0.056,0.737-0.017,1.299,0.086,1.583c0.397,0.23,0.78,0.483,1.146,0.756c-0.259-0.381-0.988-1.461-0.61-2.242
			c0.531-0.986,1.525,0.18,1.274,1.043c-0.181,0.721-0.238,1.282-0.183,1.578c0.353,0.293,0.688,0.607,1.005,0.939
			c-0.188-0.41-0.736-1.607-0.228-2.318c0.688-0.884,1.469,0.429,1.079,1.238c-0.3,0.682-0.449,1.227-0.444,1.528
			c0.299,0.347,0.578,0.712,0.836,1.092c-0.119-0.442-0.458-1.711,0.161-2.324c0.826-0.757,1.379,0.671,0.86,1.406
			c-0.408,0.622-0.646,1.135-0.691,1.434c0.237,0.392,0.453,0.798,0.644,1.218c-0.045-0.474-0.161-1.771,0.544-2.265
			c0.941-0.608,1.253,0.904,0.619,1.546c-0.501,0.542-0.82,1.008-0.917,1.3c0.196,0.501,0.36,1.017,0.486,1.547
			c0.011,0.048-0.016,0.096-0.062,0.111c-0.002,0.001-0.005,0.001-0.007,0.002c-0.05,0.012-0.1-0.019-0.112-0.069
			c-0.124-0.522-0.286-1.031-0.479-1.525c-0.268-0.145-0.821-0.234-1.531-0.135c-0.849,0.087-1.698-0.425-0.783-1.015
			c0.736-0.513,1.689,0.189,2.052,0.534c-0.185-0.4-0.392-0.789-0.62-1.164c-0.289-0.091-0.844-0.079-1.519,0.138
			c-0.82,0.233-1.738-0.122-0.935-0.858c0.633-0.622,1.671-0.115,2.092,0.16c-0.245-0.355-0.508-0.698-0.789-1.024
			c-0.3-0.039-0.842,0.067-1.469,0.395c-0.768,0.369-1.73,0.173-1.062-0.686c0.521-0.718,1.624-0.395,2.084-0.196
			c-0.298-0.308-0.613-0.6-0.943-0.873c-0.301,0.012-0.819,0.207-1.383,0.635c-0.695,0.492-1.679,0.459-1.165-0.501
			c0.397-0.8,1.553-0.658,2.034-0.538c-0.346-0.256-0.708-0.492-1.082-0.708c-0.295,0.059-0.777,0.337-1.266,0.857
			c-0.603,0.601-1.587,0.731-1.243-0.302c0.258-0.861,1.443-0.907,1.935-0.867c-0.303-0.153-0.613-0.294-0.931-0.421
			c-0.373-0.017-1.474-0.026-1.912-0.001c-0.268-0.006-1.154-0.066-1.302-0.578C51.169,361.379,51.237,361.137,51.405,360.966z"/>
	</g>
</g>
<g id="Hills">
	<g>
		<path style="fill:none;stroke:#263238;stroke-miterlimit:10;" d="M482.102,399.01c-26.29-10.86-56.28-20.09-89.07-27.28
			c-44.2-9.71-93.49-15.73-145.69-17.14c-7.85-0.21-15.75-0.32-23.72-0.32c-78.84,0-151.96,10.51-212.21,28.46"/>
		<path style="fill:none;stroke:#263238;stroke-miterlimit:10;" d="M473.719,272.115c8.448,1.275,16.98,2.675,25.591,4.208"/>
		<path style="fill:none;stroke:#263238;stroke-miterlimit:10;" d="M37.372,310.71c0,0,177.294-76.438,431.755-39.277"/>
		<path style="fill:none;stroke:#263238;stroke-miterlimit:10;" d="M40.474,196.841c31.754-0.798,145.358,1.451,279.232,64.507"/>
		<path style="fill:none;stroke:#263238;stroke-miterlimit:10;" d="M31.641,197.231c0,0,1.673-0.134,4.87-0.262"/>
		<path style="fill:none;stroke:#263238;stroke-miterlimit:10;" d="M191.931,215.21c0,0,133.149-67.268,299.355-36.319"/>
	</g>
</g>
<g id="Character">
	<g>
		<path style="fill:#FFFFFF;stroke:#263238;stroke-miterlimit:10;" d="M89.444,302.673l4.252,3.071l0.236,11.102
			c0,0-4.725-0.236-6.614-1.89c-1.89-1.654-2.669-4.585-2.669-4.585L89.444,302.673z"/>
		<path style="fill:#92E3A9;stroke:#263238;stroke-miterlimit:10;" d="M84.932,231.009c0,0-15.194,43.04-14.238,47.628
			c0.956,4.588,7.456,22.75,8.412,24.662c0.956,1.912,3.441,2.294,3.441,2.294s1.72,3.25,2.103,4.779
			c0.382,1.529,2.485,0.956,3.632,0.574c1.147-0.382,1.912-2.103,2.294-2.677c0.382-0.573,0.382,0.191,0.382-1.721
			c0-1.912-1.529-7.074-1.529-7.074s0.956-2.676,0.956-4.779c0-2.103-2.294-17.015-2.485-17.97
			c-0.191-0.956,1.721-7.265,1.721-7.265L84.932,231.009z"/>
		<path style="fill:#263238;stroke:#263238;stroke-miterlimit:10;" d="M137.422,436.478c0,0,1.512,2.458,2.079,2.836
			c0.567,0.378,3.781,2.458,4.915,3.025c1.134,0.567,2.079,1.512,2.079,3.214c0,1.702-1.701,2.269-5.293,3.592
			c-3.592,1.323-5.671,3.403-10.776,3.781c-5.104,0.378-6.995-0.567-6.995-2.08c0-1.512,0.737-11.636,0.737-11.636
			S134.964,439.503,137.422,436.478z"/>
		<path style="fill:#263238;stroke:#263238;stroke-miterlimit:10;" d="M94.06,437.32c0,0-0.345,9.805,0.007,10.589
			c0.352,0.784,2.11,2.038,5.627,2.195c3.517,0.157,6.155-0.941,6.858-1.568c0.703-0.627,0.703-2.195,0.703-2.195l1.087-8.63
			L94.06,437.32z"/>
		<path style="fill:#263238;stroke:#263238;stroke-miterlimit:10;" d="M93.453,298.926c0,0-2.304,16.417-1.921,21.196
			c0.382,4.779,0.574,11.662,0.574,11.662l1.827,97.269l-2.599,1.417l1.654,6.851c0,0,3.071,1.181,6.142,1.417
			c3.071,0.236,9.213-0.945,9.213-0.945l0.945-4.724l-1.417-3.78c0,0,0-1.417,0.473-3.307c0.472-1.89,2.835-43.229,2.835-43.229
			l5.906-49.134l2.126,3.543l5.433,90.946c0,0-1.89,3.543-1.654,4.252c0.236,0.709,1.181,3.543,1.181,3.543v3.307
			c0,0,3.307,1.417,6.142,0.709c2.835-0.709,6.85-2.126,6.85-2.126s1.181-3.307,1.181-4.016c0-0.709-0.236-2.362-0.236-3.307
			c0-0.945,8.675-104.804,8.675-104.804l-2.77-25.355L93.453,298.926z"/>
		<path style="fill:#92E3A9;stroke:#263238;stroke-miterlimit:10;" d="M104.965,218.805c0,0-19.782,8.194-20.032,12.204
			c-0.251,4.01,8.521,67.917,8.521,67.917l47.366,1.253c0,0,5.764-70.674,4.762-72.178c-1.002-1.504-20.635-8.992-20.635-8.992
			S108.206,217.879,104.965,218.805z"/>
		<path style="fill:#FFFFFF;stroke:#263238;stroke-miterlimit:10;" d="M134.121,193.726c0,0,1.019,3.874,0.408,5.505
			c-0.612,1.631-0.204,1.835-0.204,3.466c0,1.631,0.408,4.078-1.02,6.932c-1.427,2.854-3.058,7.544-4.689,7.952
			c-1.631,0.408-3.058-0.408-3.058-0.408l-0.612,1.835l-16.515-2.447l0.612-4.282c0,0-0.408-10.602-0.204-12.437
			c0.204-1.835,0-7.748,4.893-11.418C118.625,184.755,131.471,184.347,134.121,193.726z"/>
		<path style="fill:#263238;stroke:#263238;stroke-miterlimit:10;" d="M111.489,180.066c0,0-5.097,1.631-6.932,8.971
			c-1.835,7.34,0.204,14.068,1.427,15.496s2.854,4.078,2.854,4.078l0.204,3.67c0,0,9.379,1.223,11.418,0.816
			c2.039-0.408,2.854-0.816,3.67-1.427s1.631-2.855,2.243-5.709c0.612-2.854,3.262-5.913,3.262-4.282c0,1.631,0,3.262,0,3.262
			s2.243-0.408,2.243-2.039c0-1.631-0.408-3.058,0-3.874c0.408-0.816,1.835-1.631,2.651-3.262c0.815-1.631,0.815-6.728,0.815-6.728
			s2.447,3.262,2.651,0.408c0.204-2.854-1.223-7.136-5.505-9.175c-4.282-2.039-7.34-1.631-7.34-1.631
			S117.606,173.745,111.489,180.066z"/>
		<path style="fill:#92E3A9;stroke:#263238;stroke-miterlimit:10;" d="M129.636,220.232c0,0-3.874-3.874-10.602-5.505
			c-6.728-1.631-11.826-0.204-12.845,1.223c-1.02,1.427-1.223,2.855-1.223,2.855s9.379,0.204,13.049,0.612
			c3.67,0.408,14.279,2.599,14.279,2.599L129.636,220.232z"/>
		<path style="fill:#92E3A9;stroke:#263238;stroke-miterlimit:10;" d="M137.061,248.552l2.506,46.615l8.02,28.32l6.516-0.501
			l1.504-6.265c0,0,0.752-5.514,0.752-6.516c0-1.002-1.754-58.394-4.511-67.666c-2.757-9.273-6.015-15.288-9.022-15.288"/>
		<rect x="152.458" y="331.691" style="fill:#263238;stroke:#263238;stroke-miterlimit:10;" width="2.461" height="11.048"/>
		<path style="fill:#FFFFFF;stroke:#263238;stroke-miterlimit:10;" d="M154.102,322.985l3.003,8.225l-3.632,5.926
			c0,0-3.824-0.191-4.397-0.765c-0.574-0.574-3.059-3.059-2.103-3.824c0.956-0.765,0.956-0.765,0.956-0.765
			s-1.529-4.779-1.147-6.118c0.382-1.338,0.805-2.18,0.805-2.18L154.102,322.985z"/>
		<line style="fill:none;stroke:#7D7D7D;stroke-miterlimit:10;" x1="101.019" y1="327.477" x2="122.279" y2="333.619"/>
		<rect x="148.483" y="331.691" style="fill:#263238;stroke:#263238;stroke-miterlimit:10;" width="2.461" height="11.048"/>
		<polygon style="fill:#808080;stroke:#263238;stroke-miterlimit:10;" points="151.988,393.271 164.502,388.648 164.502,343.149 
			151.988,342.716 		"/>
		<rect x="140.117" y="342.716" style="fill:#4C4C4C;stroke:#263238;stroke-miterlimit:10;" width="11.871" height="50.555"/>
		<path style="fill:none;stroke:#263238;stroke-miterlimit:10;" d="M105.503,240.281c0,0,10.361,20.06,16.092,24.689"/>
		<path style="fill:none;stroke:#263238;stroke-miterlimit:10;" d="M111.234,258.577c0,0,7.715,10.14,11.904,11.903"/>
	</g>
</g>
</svg>
