<?xml version="1.0" encoding="utf-8"?>
<!-- Generator: Adobe Illustrator 27.5.0, SVG Export Plug-In . SVG Version: 6.00 Build 0)  -->
<svg version="1.1" xmlns="http://www.w3.org/2000/svg" xmlns:xlink="http://www.w3.org/1999/xlink" x="0px" y="0px"
	 viewBox="0 0 3710 3710" style="enable-background:new 0 0 3710 3710;" xml:space="preserve">
<g id="Background">
	<g>
		<g>
			<rect style="fill:#FFFFFF;" width="3710" height="3710"/>
		</g>
	</g>
</g>
<g id="Illustration">
	<g>
		<linearGradient id="SVGID_1_" gradientUnits="userSpaceOnUse" x1="3590.0718" y1="4047.9612" x2="1152.327" y2="1020.4351">
			<stop  offset="0" style="stop-color:#DAE3FE"/>
			<stop  offset="1" style="stop-color:#E9EFFD"/>
		</linearGradient>
		<path style="fill:url(#SVGID_1_);" d="M2919.433,2854.014c-55.994,58.948-108.975,96.963-150.834,126.998
			c-492.048,353.05-1074.271,250.137-1198.01,225.005c-182.723-37.112-535.924-108.849-791.281-409.144
			c-386.335-454.321-326.177-1170.092-26.509-1642.583c54.814-86.427,344.356-566.114,932.85-643.04
			c356.15-46.555,771.307,47.341,1071.952,299.222C3388.681,1339.192,3343.755,2407.301,2919.433,2854.014z"/>
		<g>
			<g>
				<g style="opacity:0.3;">
					<path style="fill:#7D97F4;" d="M1351.802,1076.726c5.699-1.721,11.895,1.107,14.25,6.716
						c5.154,12.265,9.85,24.938,13.96,37.663c2,6.191-1.396,12.831-7.586,14.83c-0.075,0.023-0.147,0.045-0.22,0.066
						c-6.126,1.851-12.633-1.538-14.609-7.655c-3.904-12.09-8.366-24.127-13.261-35.779c-2.52-5.996,0.298-12.903,6.297-15.422
						C1351.019,1076.982,1351.41,1076.845,1351.802,1076.726z M1380.744,1175.168c0.441-0.133,0.896-0.242,1.361-0.325
						c6.404-1.137,12.52,3.134,13.656,9.539c2.333,13.156,4.126,26.542,5.33,39.784c0.589,6.479-4.163,12.186-10.663,12.799
						c-6.479,0.587-12.206-4.19-12.795-10.664c-1.145-12.588-2.849-25.303-5.069-37.806
						C1371.511,1182.556,1375.109,1176.87,1380.744,1175.168z M1387.291,1277.533c1.255-0.379,2.596-0.553,3.981-0.487
						c6.496,0.321,11.507,5.843,11.189,12.34c-0.649,13.317-1.888,26.773-3.681,39.993c-0.879,6.446-6.815,10.955-13.255,10.089
						c-6.445-0.875-10.962-6.811-10.088-13.255c1.704-12.554,2.879-25.328,3.497-37.976
						C1379.184,1283.125,1382.658,1278.932,1387.291,1277.533z M1370.78,1378.813c2.075-0.627,4.346-0.688,6.586-0.057
						c6.261,1.761,9.908,8.268,8.147,14.528c-3.618,12.844-7.833,25.685-12.528,38.167c-2.294,6.08-9.082,9.159-15.172,6.875
						c-6.086-2.29-9.165-9.083-6.875-15.172c4.46-11.853,8.466-24.05,11.898-36.255
						C1363.97,1382.879,1367.057,1379.938,1370.78,1378.813z M1332.1,1473.867c2.909-0.879,6.154-0.638,9.033,0.929
						c5.716,3.108,7.828,10.261,4.719,15.973c-6.359,11.691-13.31,23.278-20.66,34.428c-3.575,5.434-10.88,6.939-16.314,3.356
						c-5.43-3.579-6.932-10.883-3.354-16.317c6.987-10.598,13.593-21.61,19.637-32.72
						C1326.702,1476.68,1329.238,1474.731,1332.1,1473.867z M1273.36,1557.99c3.768-1.138,8.019-0.365,11.193,2.425
						c4.885,4.297,5.364,11.736,1.071,16.623c-8.801,10.011-18.144,19.773-27.767,29.005c-4.697,4.505-12.151,4.348-16.654-0.347
						c-4.502-4.69-4.347-12.148,0.346-16.651c9.144-8.774,18.02-18.044,26.383-27.558
						C1269.436,1559.771,1271.327,1558.604,1273.36,1557.99z M868.318,1709.63c1.561-0.472,3.243-0.624,4.963-0.394
						c12.542,1.681,25.327,2.836,37.997,3.431c6.497,0.306,11.517,5.821,11.21,12.315c-0.303,6.498-5.818,11.518-12.316,11.213
						c-13.344-0.626-26.809-1.841-40.017-3.609c-6.448-0.864-10.974-6.792-10.11-13.238
						C860.677,1714.62,864.033,1710.924,868.318,1709.63z M1197.486,1626.959c4.677-1.413,9.935,0.2,12.954,4.383
						c3.809,5.275,2.62,12.636-2.652,16.445c-10.808,7.806-22.088,15.236-33.527,22.084c-5.595,3.314-12.814,1.53-16.157-4.054
						c-3.341-5.58-1.525-12.814,4.056-16.158c10.864-6.501,21.574-13.558,31.838-20.969
						C1195.09,1627.905,1196.269,1627.327,1197.486,1626.959z M970.898,1711.7c0.744-0.225,1.521-0.383,2.325-0.457
						c12.608-1.17,25.332-2.904,37.819-5.143c6.404-1.146,12.525,3.113,13.673,9.514c1.145,6.402-3.1,12.552-9.514,13.673
						c-13.14,2.354-26.529,4.178-39.795,5.413c-6.477,0.601-12.218-4.163-12.818-10.638
						C962.06,1718.392,965.648,1713.286,970.898,1711.7z M1108.109,1677.252c5.69-1.719,11.878,1.098,14.241,6.694
						c2.531,5.993-0.275,12.901-6.266,15.436c-12.269,5.181-24.927,9.903-37.624,14.027c-0.078,0.028-0.159,0.053-0.239,0.077
						c-6.117,1.848-12.616-1.529-14.602-7.633c-2.011-6.188,1.372-12.833,7.56-14.842c12.059-3.921,24.081-8.408,35.738-13.332
						C1107.312,1677.516,1107.71,1677.372,1108.109,1677.252z"/>
					<path style="fill:#7D97F4;" d="M787.676,1691.278c2.22-0.671,4.661-0.697,7.035,0.076c5.775,1.879,11.685,3.665,17.568,5.32
						c6.261,1.756,9.916,8.261,8.156,14.521c-1.756,6.264-8.26,9.925-14.524,8.155c-6.188-1.735-12.403-3.616-18.481-5.592
						c-6.185-2.01-9.572-8.658-7.561-14.84C781.108,1695.102,784.109,1692.355,787.676,1691.278z"/>
				</g>
				<g style="opacity:0.3;">
					<path style="fill:#7D97F4;" d="M516.649,1455.727c5.442-1.644,11.423,0.856,13.988,6.132
						c2.652,5.462,5.464,10.961,8.357,16.339c3.081,5.73,0.935,12.872-4.793,15.953c-5.753,3.093-12.873,0.932-15.953-4.794
						c-3.045-5.664-6.007-11.454-8.801-17.205c-2.842-5.851-0.402-12.898,5.448-15.741
						C515.469,1456.132,516.057,1455.906,516.649,1455.727z"/>
					<path style="fill:#7D97F4;" d="M796.02,815.983c5.188-1.567,10.422-3.052,15.701-4.454c6.287-1.668,12.738,2.073,14.408,8.36
						c1.67,6.286-2.096,12.768-8.357,14.41c-12.183,3.238-24.207,6.961-35.872,11.119c-6.136,2.175-12.864-1.012-15.049-7.138
						c-2.185-6.131,1.013-12.869,7.14-15.052C781.206,820.655,788.619,818.218,796.02,815.983z M872.769,799.706
						c0.63-0.19,1.286-0.331,1.963-0.415c13.04-1.627,26.294-2.719,39.393-3.243c6.498-0.261,11.979,4.797,12.24,11.293
						c0.26,6.501-4.805,12-11.297,12.241c-12.441,0.5-25.031,1.539-37.424,3.081c-6.454,0.806-12.338-3.775-13.143-10.227
						C863.781,806.655,867.377,801.335,872.769,799.706z M717.192,848.036c5.316-1.606,11.188,0.739,13.843,5.844
						c3.001,5.774,0.753,12.883-5.018,15.886c-11.041,5.738-21.985,12.028-32.532,18.703c-5.503,3.469-12.774,1.84-16.251-3.656
						c-3.478-5.5-1.84-12.776,3.657-16.253c11.106-7.026,22.634-13.651,34.26-19.696
						C715.817,848.518,716.501,848.245,717.192,848.036z M973.756,798.322c1.431-0.432,2.968-0.594,4.547-0.441
						c13.067,1.277,26.237,3.129,39.142,5.502c6.396,1.177,10.627,7.315,9.45,13.712c-1.176,6.401-7.311,10.633-13.713,9.453
						c-12.254-2.253-24.759-4.012-37.169-5.224c-6.474-0.63-11.209-6.394-10.576-12.867
						C965.914,803.564,969.323,799.661,973.756,798.322z M633.364,904.212c4.36-1.317,9.282-0.026,12.41,3.677
						c4.198,4.97,3.571,12.402-1.399,16.6c-9.503,8.022-18.795,16.568-27.622,25.395c-4.599,4.6-12.057,4.603-16.657-0.001
						c-4.598-4.6-4.598-12.053,0.001-16.653c9.292-9.295,19.075-18.291,29.081-26.74
						C630.443,905.421,631.872,904.662,633.364,904.212z M563.891,977.424c3.486-1.053,7.41-0.479,10.533,1.888
						c5.182,3.933,6.195,11.321,2.262,16.503c-7.54,9.939-14.75,20.31-21.428,30.825c-3.48,5.497-10.755,7.122-16.255,3.632
						c-5.492-3.488-7.115-10.764-3.63-16.258c7.028-11.067,14.615-21.98,22.551-32.437
						C559.485,979.518,561.592,978.118,563.891,977.424z M512.031,1064.039c2.651-0.801,5.592-0.675,8.309,0.57
						c5.913,2.708,8.51,9.7,5.8,15.613c-5.203,11.352-9.983,23.042-14.207,34.756c-2.206,6.116-8.949,9.292-15.076,7.082
						c-6.118-2.209-9.289-8.955-7.082-15.076c4.447-12.325,9.476-24.633,14.95-36.576
						C506.191,1067.211,508.909,1064.983,512.031,1064.039z M480.298,1159.897c1.837-0.555,3.833-0.668,5.843-0.241
						c6.363,1.351,10.424,7.603,9.072,13.965c-2.594,12.207-4.694,24.66-6.242,37.018c-0.809,6.454-6.705,11.032-13.149,10.224
						c-6.456-0.808-11.032-6.698-10.223-13.152c1.631-13.017,3.842-26.133,6.572-38.982
						C473.098,1164.374,476.319,1161.099,480.298,1159.897z M470.379,1260.421c1.033-0.312,2.127-0.484,3.259-0.499
						c6.503-0.085,11.846,5.12,11.928,11.622c0.163,12.447,0.857,25.05,2.07,37.467c0.632,6.475-4.124,12.233-10.578,12.865
						c-6.474,0.634-12.235-4.104-12.867-10.579c-1.276-13.071-2.009-26.34-2.177-39.443
						C461.944,1266.482,465.481,1261.901,470.379,1260.421z M482.777,1360.601c0.231-0.07,0.467-0.131,0.705-0.189
						c6.329-1.498,12.676,2.419,14.172,8.748c2.115,8.935,4.53,17.909,7.18,26.682c0.959,3.175,1.954,6.335,2.976,9.472
						c2.015,6.187-1.364,12.836-7.549,14.848c-6.222,2.163-12.831-1.363-14.847-7.545c-1.077-3.304-2.12-6.621-3.13-9.964
						c-2.787-9.227-5.328-18.672-7.551-28.069C473.291,1368.494,476.865,1362.387,482.777,1360.601z"/>
					<path style="fill:#7D97F4;" d="M1072.833,819.305c2.242-0.677,4.704-0.695,7.093,0.092c6.054,2.001,12.181,4.169,18.209,6.442
						c6.088,2.294,9.162,9.089,6.867,15.175c-2.297,6.086-9.083,9.165-15.175,6.867c-5.727-2.158-11.546-4.217-17.294-6.118
						c-6.174-2.038-9.527-8.7-7.486-14.877C1066.299,823.1,1069.287,820.375,1072.833,819.305z"/>
				</g>
				<g>
					<g>
						<path style="fill:#91B3FA;" d="M1097.12,954.675c-1.947-1.312-4.513-1.245-6.389,0.168l-53.508,40.319
							c-29.25-11.107-60.482-17.632-92.659-18.846l-33.527-57.956c-1.176-2.034-3.512-3.096-5.817-2.647l-78.881,15.366
							c-2.306,0.45-4.071,2.313-4.399,4.636l-9.321,66.303c-29.368,13.204-55.868,30.972-78.809,52.248l-64.731-17.286
							c-2.269-0.606-4.672,0.295-5.984,2.242l-44.912,66.643c-1.313,1.949-1.245,4.515,0.169,6.389l40.318,53.508
							c-11.108,29.25-17.631,60.483-18.845,92.659l-57.957,33.528c-2.033,1.176-3.095,3.511-2.647,5.817l15.366,78.882
							c0.449,2.305,2.311,4.072,4.637,4.398l66.303,9.321c13.203,29.368,30.971,55.868,52.247,78.809l-17.286,64.732
							c-0.605,2.267,0.295,4.672,2.242,5.984l66.643,44.911c1.948,1.314,4.513,1.245,6.389-0.168l53.508-40.319
							c29.25,11.109,60.482,17.632,92.659,18.846l33.528,57.957c1.176,2.032,3.511,3.095,5.817,2.647l78.882-15.367
							c2.306-0.448,4.071-2.311,4.398-4.637l9.321-66.303c29.369-13.202,55.868-30.972,78.809-52.248l64.73,17.285
							c2.269,0.607,4.673-0.294,5.985-2.241l44.911-66.643c1.313-1.947,1.245-4.513-0.168-6.389l-40.318-53.508
							c11.109-29.25,17.631-60.483,18.845-92.659l57.957-33.528c2.032-1.175,3.096-3.512,2.645-5.817l-15.366-78.88
							c-0.449-2.305-2.311-4.072-4.636-4.399l-66.303-9.321c-13.203-29.367-30.972-55.867-52.247-78.809l17.285-64.73
							c0.606-2.269-0.294-4.672-2.242-5.985L1097.12,954.675z"/>
					</g>
					<g>
						<path style="fill:#BDD0FB;" d="M909.939,1192.39c37.695-11.386,79.155,6.296,96.405,42.965
							c18.959,40.309,1.592,88.521-38.713,107.482c-19.526,9.19-41.46,10.217-61.756,2.905c-20.3-7.31-36.54-22.09-45.722-41.617
							c-18.96-40.31-1.592-88.521,38.713-107.482C902.499,1194.934,906.202,1193.518,909.939,1192.39z M951.034,1329.078
							c2.911-0.879,5.774-1.975,8.576-3.292c30.903-14.535,44.217-51.506,29.683-82.407c-14.537-30.904-51.502-44.235-82.409-29.684
							c-30.903,14.534-44.217,51.506-29.683,82.406c7.043,14.973,19.492,26.303,35.058,31.91
							C924.91,1332.566,938.392,1332.896,951.034,1329.078z"/>
					</g>
					<g>
						<path style="fill:#BDD0FB;" d="M874.621,1081.178c6.474-1.956,13.084-3.597,19.813-4.908l0,0
							c2.117-0.414,4.243-0.791,6.373-1.137c10.505-1.698,21.129-2.557,31.706-2.565c0.144,0,0.288,0,0.432-0.001
							c0.409,0.002,0.818,0.003,1.228,0.009c0.797,0.004,1.594,0.019,2.389,0.033c2.093,0.041,3.84,1.44,4.417,3.342
							c0.14,0.462,0.209,0.956,0.2,1.464c-0.051,2.601-2.207,4.66-4.804,4.613c-13.386-0.268-26.89,0.908-40.137,3.492
							c-65.811,12.809-117.023,58.499-139.934,116.689c-12.747,32.365-16.735,68.6-9.603,105.201
							c1.249,6.419,2.813,12.727,4.681,18.901c12.557,41.556,38.806,77.232,75.293,101.819
							c41.909,28.245,92.31,38.478,141.914,28.815c102.445-19.968,169.485-119.493,149.537-221.89
							c-1.229-6.314-2.775-12.542-4.625-18.659c-8.012-26.508-21.735-50.968-40.27-71.576c-0.479-0.533-0.814-1.143-1.006-1.787
							c-0.511-1.691-0.044-3.606,1.359-4.865c1.941-1.735,4.912-1.59,6.655,0.354c19.459,21.636,33.87,47.317,42.28,75.145
							c1.942,6.421,3.563,12.957,4.856,19.583c20.944,107.509-49.513,212.007-156.982,232.944
							c-52.077,10.146-104.985-0.599-148.982-30.251c-38.305-25.811-65.86-63.265-79.045-106.89
							c-1.958-6.483-3.6-13.105-4.914-19.84c-10.144-52.08,0.598-104.99,30.247-148.986
							C793.516,1121.915,830.984,1094.359,874.621,1081.178z"/>
					</g>
				</g>
			</g>
			<g>
				<g style="opacity:0.3;">
					<path style="fill:#7D97F4;" d="M1646.808,663.385c3.013-0.91,6.381,0.217,8.19,2.988c3.379,5.169,6.648,10.511,9.713,15.878
						c1.992,3.487,0.781,7.927-2.709,9.924c-3.486,2.01-7.932,0.778-9.924-2.709c-2.921-5.114-6.036-10.206-9.26-15.14
						c-2.198-3.358-1.251-7.866,2.109-10.069C1645.525,663.869,1646.158,663.581,1646.808,663.385z"/>
					<path style="fill:#7D97F4;" d="M1672.993,712.839c3.529-1.066,7.363,0.693,8.809,4.166c4.093,9.814,7.727,19.952,10.8,30.125
						c0.647,2.142,1.272,4.298,1.879,6.468c1.078,3.875-1.432,7.801-5.05,8.969c-3.87,1.08-7.882-1.182-8.964-5.047
						c-0.579-2.074-1.175-4.135-1.793-6.182c-2.931-9.705-6.397-19.373-10.297-28.733c-1.548-3.71,0.206-7.966,3.912-9.515
						C1672.524,712.996,1672.758,712.91,1672.993,712.839z M1693.298,785.591c0.329-0.099,0.673-0.181,1.02-0.234
						c3.975-0.6,7.683,2.132,8.286,6.105c1.935,12.744,3.094,25.722,3.445,38.566c0.112,4.018-3.077,7.356-7.072,7.471
						c-4.019,0.108-7.359-3.053-7.471-7.071c-0.336-12.255-1.444-24.632-3.286-36.787
						C1687.672,790.02,1689.891,786.62,1693.298,785.591z M1695.355,861.093c0.884-0.267,1.833-0.367,2.807-0.276
						c3.998,0.388,6.922,3.95,6.534,7.948c-1.251,12.809-3.314,25.683-6.144,38.255c-0.881,3.925-4.763,6.381-8.695,5.499
						c-3.917-0.88-6.381-4.774-5.5-8.691c2.697-11.99,4.668-24.26,5.857-36.477C1690.511,864.329,1692.618,861.919,1695.355,861.093
						z M1678.787,934.793c1.442-0.436,3.029-0.425,4.554,0.116c3.78,1.359,5.748,5.528,4.389,9.308
						c-4.36,12.137-9.509,24.103-15.312,35.578c-1.816,3.584-6.197,5.011-9.774,3.205c-3.586-1.811-5.022-6.186-3.209-9.776
						c5.532-10.933,10.446-22.354,14.602-33.924C1674.848,937.044,1676.656,935.437,1678.787,934.793z M1644.722,1002.21
						c2.013-0.608,4.275-0.341,6.16,0.922c3.335,2.235,4.224,6.753,1.991,10.092c-7.174,10.694-15.073,21.05-23.483,30.774
						c-2.626,3.049-7.221,3.376-10.26,0.747c-3.039-2.629-3.373-7.225-0.746-10.26c8.024-9.281,15.56-19.156,22.402-29.364
						C1641.76,1003.668,1643.168,1002.679,1644.722,1002.21z M1595.333,1059.308c2.608-0.788,5.557-0.068,7.507,2.089
						c2.692,2.979,2.455,7.577-0.523,10.272c-9.556,8.631-19.743,16.747-30.274,24.113c-3.309,2.298-7.829,1.496-10.133-1.793
						c-2.303-3.289-1.5-7.828,1.79-10.129c10.044-7.026,19.752-14.76,28.862-22.988
						C1593.387,1060.126,1594.336,1059.609,1595.333,1059.308z M1533.499,1102.587c3.264-0.986,6.874,0.439,8.526,3.562
						c1.878,3.551,0.522,7.954-3.029,9.835c-11.345,6.002-23.215,11.368-35.283,15.957c-3.787,1.367-7.963-0.467-9.386-4.222
						c-1.427-3.754,0.461-7.954,4.215-9.385c11.515-4.369,22.836-9.488,33.653-15.212
						C1532.62,1102.897,1533.057,1102.721,1533.499,1102.587z M1425.648,1136.129c0.401-0.121,0.823-0.211,1.257-0.261
						c10.532-1.245,21.181-3.088,31.654-5.48c1.588-0.354,3.144-0.719,4.69-1.104c3.904-0.957,7.844,1.423,8.803,5.325
						c0.969,3.908-1.412,7.966-5.321,8.806c-1.652,0.402-3.303,0.797-4.968,1.167c-10.942,2.496-22.105,4.429-33.151,5.732
						c-3.992,0.471-7.605-2.378-8.076-6.369C1420.115,1140.39,1422.333,1137.13,1425.648,1136.129z"/>
				</g>
				<g style="opacity:0.3;">
					<path style="fill:#7D97F4;" d="M1296.979,538.759c3.801-1.148,7.834,0.974,9.037,4.773c1.212,3.827-0.911,7.919-4.742,9.128
						c-11.533,3.647-22.94,8.028-33.905,13.024c-3.648,1.622-7.972,0.056-9.638-3.604c-1.666-3.66-0.048-7.971,3.604-9.638
						c11.503-5.233,23.46-9.832,35.548-13.654C1296.914,538.779,1296.949,538.769,1296.979,538.759z M1333.073,529.69
						c0.252-0.076,0.504-0.137,0.767-0.187c12.444-2.349,25.159-3.963,37.788-4.802c4.01-0.261,7.473,2.766,7.738,6.775
						c0.27,4.015-2.789,7.47-6.773,7.745c-12.052,0.798-24.183,2.34-36.059,4.577c-3.946,0.747-7.75-1.852-8.494-5.798
						C1327.344,534.307,1329.564,530.75,1333.073,529.69z M1229.392,569.564c3.088-0.933,6.534,0.283,8.302,3.162
						c2.098,3.418,1.027,7.897-2.397,10c-10.313,6.336-20.325,13.345-29.761,20.849c-3.162,2.491-7.722,1.976-10.22-1.173
						c-2.5-3.141-1.977-7.722,1.168-10.222c9.892-7.863,20.391-15.213,31.203-21.848
						C1228.234,569.995,1228.807,569.741,1229.392,569.564z M1407.233,524.818c0.792-0.239,1.638-0.347,2.514-0.299
						c12.652,0.712,25.389,2.216,37.851,4.47c3.955,0.713,6.579,4.498,5.867,8.454c-0.717,3.942-4.502,6.569-8.451,5.862
						c-11.884-2.146-24.023-3.578-36.088-4.26c-4.01-0.228-7.08-3.664-6.852-7.674
						C1402.251,528.237,1404.39,525.677,1407.233,524.818z M1171.26,615.791c2.465-0.745,5.252-0.155,7.212,1.777
						c2.868,2.822,2.901,7.427,0.084,10.289c-8.471,8.599-16.502,17.808-23.87,27.38c-2.453,3.19-7.022,3.776-10.205,1.323
						c-3.182-2.452-3.776-7.022-1.324-10.205c7.73-10.031,16.148-19.69,25.027-28.709
						C1169.071,616.749,1170.135,616.131,1171.26,615.791z M1125.913,674.615c1.887-0.57,3.995-0.375,5.82,0.706
						c3.455,2.051,4.595,6.515,2.544,9.969c-6.177,10.408-11.776,21.279-16.641,32.307c-1.623,3.681-5.922,5.344-9.592,3.721
						c-3.677-1.621-5.34-5.912-3.719-9.585c5.1-11.566,10.967-22.963,17.439-33.868
						C1122.73,676.237,1124.234,675.122,1125.913,674.615z M1095.961,742.615c1.326-0.401,2.779-0.431,4.205,0.006
						c3.846,1.161,6.02,5.224,4.856,9.071c-3.513,11.577-6.338,23.473-8.401,35.353c-0.692,3.949-4.456,6.608-8.413,5.918
						c-3.959-0.689-6.609-4.452-5.922-8.415c2.167-12.455,5.129-24.933,8.807-37.078
						C1091.829,745.05,1093.711,743.294,1095.961,742.615z"/>
					<path style="fill:#7D97F4;" d="M1480.692,538.108c1.343-0.406,2.817-0.428,4.258,0.02c5.946,1.848,11.862,3.882,17.59,6.04
						c3.757,1.418,5.659,5.615,4.242,9.375c-1.425,3.747-5.614,5.651-9.376,4.242c-5.461-2.061-11.107-3.999-16.78-5.766
						c-3.837-1.193-5.978-5.273-4.784-9.107C1476.589,540.52,1478.458,538.783,1480.692,538.108z"/>
				</g>
				<g>
					<g>
						<path style="fill:#91B3FA;" d="M1502.076,629.817c-1.302-0.878-3.02-0.833-4.275,0.113l-35.806,26.979
							c-19.573-7.433-40.472-11.799-62.003-12.611l-22.435-38.781c-0.786-1.361-2.35-2.072-3.892-1.771l-52.784,10.282
							c-1.543,0.301-2.724,1.547-2.944,3.103l-6.237,44.367c-19.652,8.835-37.384,20.725-52.736,34.962l-43.314-11.567
							c-1.518-0.405-3.127,0.197-4.005,1.501l-30.053,44.594c-0.878,1.304-0.833,3.021,0.113,4.275l26.979,35.805
							c-7.433,19.573-11.798,40.473-12.61,62.003l-38.782,22.435c-1.36,0.787-2.071,2.35-1.771,3.892l10.283,52.784
							c0.301,1.543,1.547,2.725,3.103,2.943l44.367,6.237c8.834,19.652,20.725,37.384,34.962,52.735l-11.567,43.316
							c-0.405,1.518,0.197,3.126,1.5,4.004l44.595,30.053c1.303,0.879,3.02,0.833,4.275-0.113l35.806-26.98
							c19.572,7.434,40.472,11.799,62.003,12.611l22.435,38.782c0.787,1.36,2.349,2.072,3.892,1.771l52.784-10.283
							c1.542-0.3,2.724-1.546,2.943-3.103l6.237-44.367c19.652-8.834,37.385-20.725,52.736-34.962l43.314,11.566
							c1.519,0.406,3.128-0.197,4.005-1.5l30.053-44.594c0.878-1.303,0.833-3.02-0.113-4.275l-26.979-35.805
							c7.433-19.573,11.798-40.472,12.61-62.003l38.783-22.435c1.359-0.786,2.071-2.35,1.77-3.893l-10.281-52.783
							c-0.301-1.543-1.547-2.724-3.103-2.944l-44.367-6.237c-8.835-19.651-20.725-37.383-34.961-52.735l11.566-43.315
							c0.405-1.518-0.197-3.126-1.5-4.005L1502.076,629.817z"/>
					</g>
					<g>
						<path style="fill:#BDD0FB;" d="M1376.618,787.928c11.234-3.393,23.211-3.101,34.451,0.947
							c13.827,4.981,24.887,15.05,31.142,28.351c12.913,27.445,1.086,60.286-26.367,73.209
							c-27.515,12.883-60.303,1.08-73.215-26.373c-6.259-13.301-6.961-28.242-1.979-42.066
							c4.979-13.831,15.048-24.893,28.353-31.147C1371.49,789.685,1374.037,788.708,1376.618,787.928z M1404.103,879.401
							c1.874-0.566,3.726-1.274,5.55-2.129c20.193-9.505,28.892-33.661,19.393-53.856c-4.601-9.779-12.737-17.192-22.906-20.85
							c-10.176-3.664-21.159-3.137-30.948,1.452l0,0c-9.782,4.602-17.19,12.74-20.854,22.907
							c-3.664,10.176-3.147,21.165,1.457,30.951C1364.435,876.244,1385.215,885.106,1404.103,879.401z"/>
					</g>
					<g>
						<path style="fill:#BDD0FB;" d="M1352.135,710.487c4.407-1.331,8.915-2.448,13.526-3.351
							c9.156-1.786,18.503-2.643,27.805-2.544c0.418,0.007,0.836,0.015,1.254,0.022c3.232,0.062,5.929,2.224,6.82,5.161
							c0.216,0.714,0.323,1.475,0.308,2.259c-0.079,4.016-3.409,7.19-7.418,7.124c-8.684-0.175-17.425,0.588-25.981,2.26
							l-0.004,0.001c-0.47,0.09-0.941,0.188-1.406,0.284c-20.215,4.139-38.632,13.161-54.002,26.115
							c-8.343,7.032-15.788,15.233-22.126,24.457c-0.052,0.075-0.103,0.15-0.155,0.225c-0.156,0.233-0.314,0.459-0.467,0.69
							c-18.282,27.132-24.909,59.76-18.652,91.872c0.807,4.157,1.82,8.237,3.028,12.236c8.13,26.902,25.125,49.997,48.745,65.919
							c27.133,18.283,59.759,24.902,91.868,18.646c32.089-6.264,59.868-24.644,78.156-51.771
							c18.282-27.132,24.909-59.76,18.652-91.873c-0.793-4.087-1.796-8.118-2.991-12.076c-5.188-17.164-14.07-32.996-26.07-46.336
							c-0.739-0.823-1.257-1.765-1.554-2.759c-0.789-2.611-0.068-5.568,2.098-7.513c2.994-2.678,7.584-2.447,10.276,0.547
							c13.425,14.927,23.366,32.644,29.172,51.839c1.339,4.434,2.46,8.941,3.35,13.511c6.999,35.933-0.413,72.434-20.871,102.791
							c-20.457,30.349-51.483,50.942-87.433,57.919c-35.928,7.001-72.429-0.407-102.784-20.87
							c-26.428-17.805-45.439-43.646-54.534-73.744c-1.35-4.468-2.485-9.038-3.391-13.684
							C1243.81,798.287,1285.701,730.554,1352.135,710.487z"/>
					</g>
				</g>
			</g>
		</g>
		<g>
			<defs>
				
					<rect id="SVGID_00000038373870454201222890000008002085183557571999_" x="526.385" y="1282.751" width="2682.607" height="1964.537"/>
			</defs>
			<clipPath id="SVGID_00000132771133915238300070000001966231126228839085_">
				<use xlink:href="#SVGID_00000038373870454201222890000008002085183557571999_"  style="overflow:visible;"/>
			</clipPath>
			<g style="clip-path:url(#SVGID_00000132771133915238300070000001966231126228839085_);">
				<g>
					
						<linearGradient id="SVGID_00000153696789936204026860000006142251627516214434_" gradientUnits="userSpaceOnUse" x1="1378.7682" y1="3856.8669" x2="658.6938" y2="6103.502">
						<stop  offset="0" style="stop-color:#FDF53F"/>
						<stop  offset="1" style="stop-color:#D93C65"/>
					</linearGradient>
					
						<rect x="1140.078" y="3943.496" style="fill:url(#SVGID_00000153696789936204026860000006142251627516214434_);" width="94.455" height="1021.471"/>
					
						<linearGradient id="SVGID_00000085227365882265091710000004930176944228316045_" gradientUnits="userSpaceOnUse" x1="1538.2716" y1="3859.9597" x2="792.0299" y2="6188.2368">
						<stop  offset="0" style="stop-color:#FDF53F"/>
						<stop  offset="1" style="stop-color:#D93C65"/>
					</linearGradient>
					<path style="fill:url(#SVGID_00000085227365882265091710000004930176944228316045_);" d="M1600.949,4984.661H773.662v-58.978
						c0-1.385,1.122-2.507,2.507-2.507h822.272c1.385,0,2.507,1.123,2.507,2.507V4984.661z"/>
					
						<linearGradient id="SVGID_00000101818715537305323270000011350954651550887846_" gradientUnits="userSpaceOnUse" x1="1221.4913" y1="3806.4578" x2="501.4172" y2="6053.0918">
						<stop  offset="0" style="stop-color:#FDF53F"/>
						<stop  offset="1" style="stop-color:#D93C65"/>
					</linearGradient>
					<path style="fill:url(#SVGID_00000101818715537305323270000011350954651550887846_);" d="M1723.728,3908.043
						c0,55.867-45.71,101.577-101.577,101.577H785.151c-55.867,0-101.577-45.709-101.577-101.577v-91.846
						c0-55.867,45.71-101.577,101.577-101.577h836.999c55.867,0,101.577,45.71,101.577,101.577V3908.043z"/>
				</g>
				<g>
					<g>
						
							<linearGradient id="SVGID_00000054961441428192010800000016726777135701326216_" gradientUnits="userSpaceOnUse" x1="3288.6677" y1="4420.3877" x2="3232.6589" y2="4686.0283">
							<stop  offset="0" style="stop-color:#09005D"/>
							<stop  offset="1" style="stop-color:#1A0F91"/>
						</linearGradient>
						<path style="fill:url(#SVGID_00000054961441428192010800000016726777135701326216_);" d="M3071.5,4809.777
							c42.354-20.567,366.877-136.085,447.946-259.5c-3.867-2.919-8.555-4.991-14.033-5.649
							c-91.689-11.047-274.829-22.017-437.065,35.809l-86.024,73.683c0,0-28.957,69.5,27.637,154.317
							C3024.164,4816.021,3046.067,4822.128,3071.5,4809.777z"/>
						
							<linearGradient id="SVGID_00000134962954957631549520000014400482173729455805_" gradientUnits="userSpaceOnUse" x1="3380.0415" y1="4375.5459" x2="3296.8289" y2="4617.1831">
							<stop  offset="0" style="stop-color:#53D8FF"/>
							<stop  offset="1" style="stop-color:#3840F7"/>
						</linearGradient>
						<path style="fill:url(#SVGID_00000134962954957631549520000014400482173729455805_);" d="M3519.446,4550.277
							c-81.069,123.415-405.592,238.933-447.946,259.5c-25.434,12.352-47.336,6.245-61.54-1.341c0.101,0.15,0.175,0.297,0.277,0.448
							c14.32,21.362,41.84,29.542,65.76,20.094c91.279-36.053,324.056-133.394,444.669-233.183
							C3536.028,4583.086,3533.419,4560.821,3519.446,4550.277z"/>
					</g>
					<g>
						
							<linearGradient id="SVGID_00000083049571932898312800000012543547749601222840_" gradientUnits="userSpaceOnUse" x1="3214.2019" y1="4654.6787" x2="3344.4917" y2="5186.6938">
							<stop  offset="0" style="stop-color:#09005D"/>
							<stop  offset="1" style="stop-color:#1A0F91"/>
						</linearGradient>
						<path style="fill:url(#SVGID_00000083049571932898312800000012543547749601222840_);" d="M3060.299,4917.69
							c42.354-20.568,366.877-136.086,447.945-259.5c-3.867-2.918-8.554-4.991-14.033-5.649
							c-91.689-11.047-274.829-22.017-437.065,35.809l-86.024,73.683c0,0-28.957,69.5,27.637,154.318
							C3012.963,4923.935,3034.865,4930.041,3060.299,4917.69z"/>
						
							<linearGradient id="SVGID_00000170966072240020789610000011646553764950216363_" gradientUnits="userSpaceOnUse" x1="3223.8276" y1="4652.3213" x2="3354.1172" y2="5184.3364">
							<stop  offset="0" style="stop-color:#53D8FF"/>
							<stop  offset="1" style="stop-color:#3840F7"/>
						</linearGradient>
						<path style="fill:url(#SVGID_00000170966072240020789610000011646553764950216363_);" d="M3508.244,4658.19
							c-81.068,123.415-405.592,238.933-447.945,259.5c-25.434,12.351-47.336,6.245-61.54-1.341
							c0.101,0.149,0.175,0.296,0.277,0.447c14.32,21.362,41.84,29.542,65.76,20.093c91.279-36.052,324.056-133.394,444.669-233.183
							C3524.826,4690.999,3522.217,4668.733,3508.244,4658.19z"/>
					</g>
					<g>
						
							<linearGradient id="SVGID_00000029766328292590608970000014995307202637473193_" gradientUnits="userSpaceOnUse" x1="3440.2544" y1="3930.5132" x2="2946.2397" y2="4679.6772">
							<stop  offset="0" style="stop-color:#FEBBBA"/>
							<stop  offset="1" style="stop-color:#FF928E"/>
						</linearGradient>
						<path style="fill:url(#SVGID_00000029766328292590608970000014995307202637473193_);" d="M3001.165,4510.201
							c-12.456,30.736-39.537,68.406-97.795,99.646l84.792,59.032c31.714,0.933,52.091-8.198,65.15-19.701
							c18.611-16.393,21.057-44.675,6.057-64.424C3040.108,4559.394,3020.691,4534.575,3001.165,4510.201z"/>
						
							<linearGradient id="SVGID_00000069392855509176729770000013384585637129214905_" gradientUnits="userSpaceOnUse" x1="2641.4512" y1="3355.7395" x2="2122.0867" y2="4143.3462">
							<stop  offset="0" style="stop-color:#CB236D"/>
							<stop  offset="1" style="stop-color:#4C246D"/>
						</linearGradient>
						<path style="fill:url(#SVGID_00000069392855509176729770000013384585637129214905_);" d="M3002.893,4483.44
							c-687.872-848.411-1536.907-1069.348-1536.907-1069.348l21.533,210.049l1429.557,999.75
							c47.804-25.634,75.033-72.547,90.148-105.54C3012.501,4506.833,3010.872,4493.282,3002.893,4483.44z"/>
					</g>
					<g>
						
							<linearGradient id="SVGID_00000161592425604712537650000008186496689026998419_" gradientUnits="userSpaceOnUse" x1="3084.3083" y1="4658.3857" x2="1625.405" y2="5068.3687">
							<stop  offset="0" style="stop-color:#FEBBBA"/>
							<stop  offset="1" style="stop-color:#FF928E"/>
						</linearGradient>
						<path style="fill:url(#SVGID_00000161592425604712537650000008186496689026998419_);" d="M2982.719,4587.028
							c-3.695,29.342-20.65,81.288-89.361,124.455c25.934,19.977,50.987,40.087,74.946,60.321
							c9.626,8.129,22.315,11.545,34.66,9.026c23.658-4.828,59.864-19.724,70.609-65.525c2.731-11.642-0.253-23.89-7.914-33.07
							C3051.344,4665.081,3023.069,4631.792,2982.719,4587.028z"/>
						
							<linearGradient id="SVGID_00000127754211687784091960000003523641205139557542_" gradientUnits="userSpaceOnUse" x1="2856.7761" y1="3787.4214" x2="1359.4111" y2="4208.2129">
							<stop  offset="0" style="stop-color:#CB236D"/>
							<stop  offset="1" style="stop-color:#4C246D"/>
						</linearGradient>
						<path style="fill:url(#SVGID_00000127754211687784091960000003523641205139557542_);" d="M2988.022,4575.165
							c-214.524-235.144-742.581-747.118-1322.588-959.646c-48.262-17.685-87.526-53.778-109.758-100.121l-86.765-180.867
							c0,0-422.929-99.108-683.508,173.743c0,0,15.879,259.533,343.164,354.409c305.516,88.566,1210.831,448.182,1744.807,851.144
							c12.246,9.242,29.24,9.679,41.362,0.274c42.455-32.935,69.049-74.033,80.364-102.996
							C2999.898,4598.825,2996.908,4584.905,2988.022,4575.165z"/>
					</g>
					
						<linearGradient id="SVGID_00000040541686045768749190000008366170179638716822_" gradientUnits="userSpaceOnUse" x1="854.603" y1="3269.9028" x2="1973.8691" y2="2278.7468">
						<stop  offset="0" style="stop-color:#4F52FF"/>
						<stop  offset="1" style="stop-color:#4042E2"/>
					</linearGradient>
					<path style="fill:url(#SVGID_00000040541686045768749190000008366170179638716822_);" d="M739.434,3504.801
						c0,0,86.278,37.753,234.188-30.615c147.909-68.368,550.088-75.184,550.088-75.184s-130.29-487.629,159.243-836.496
						c0,0,233.198,436.49,397.083,501.635l73.406,3.369v-311.394c0,0-62.251-384.407-456.014-671.466l-122.602-110.499
						c0,0-431.103-86.917-724.266,427.344C557.396,2915.755,739.434,3504.801,739.434,3504.801z"/>
					
						<linearGradient id="SVGID_00000044177952839786435600000000833996672561561520_" gradientUnits="userSpaceOnUse" x1="1859.7032" y1="2522.0554" x2="2266.9834" y2="2522.0554">
						<stop  offset="0" style="stop-color:#FEBBBA"/>
						<stop  offset="1" style="stop-color:#FF928E"/>
					</linearGradient>
					<path style="fill:url(#SVGID_00000044177952839786435600000000833996672561561520_);" d="M2178.218,2160.187
						c4.104-21.612,5.646-72.156-46.491-133.767c-69.753-82.433-159.243-40.402-159.243-40.402
						c-79.289,44.4-112.781,189.381-112.781,189.381l83.829-44.743c12.702,36.883,136.504,76.648,136.504,76.648l0.691-0.26
						c1.195,80.191-0.745,314.069-57.617,476.738c-22.282,63.727-67.599,182.127,82.034,385.026l82.443-3.37
						C2187.587,3065.438,2372.32,2751.85,2178.218,2160.187z"/>
					<g>
						
							<linearGradient id="SVGID_00000047042851027846213620000017885754883866822540_" gradientUnits="userSpaceOnUse" x1="1616.5867" y1="1323.3947" x2="1998.4211" y2="931.6426" gradientTransform="matrix(0.963 0.2697 -0.2697 0.963 221.0895 393.242)">
							<stop  offset="0" style="stop-color:#FEBBBA"/>
							<stop  offset="1" style="stop-color:#FF928E"/>
						</linearGradient>
						<path style="fill:url(#SVGID_00000047042851027846213620000017885754883866822540_);" d="M1759.152,1684.822l-229.574,324.157
							c-14.924,21.071-12.891,49.647,4.763,68.49c30.932,33.016,83.09,79.539,139.317,90.164
							c17.459,3.299,35.223-4.029,44.922-18.917l122.092-187.414C1840.672,1961.302,1864.048,1666.902,1759.152,1684.822z"/>
						
							<linearGradient id="SVGID_00000129189385012834583090000001241134972721386909_" gradientUnits="userSpaceOnUse" x1="-1315.8878" y1="2010.9368" x2="-1799.3386" y2="2650.5027" gradientTransform="matrix(0.7999 -0.6002 0.6002 0.7999 1683.0059 -865.0446)">
							<stop  offset="0" style="stop-color:#FEBBBA"/>
							<stop  offset="1" style="stop-color:#FF928E"/>
						</linearGradient>
						<path style="fill:url(#SVGID_00000129189385012834583090000001241134972721386909_);" d="M1911.595,1474.119
							c3.826,5.098,128.024,407.809,128.024,407.809l-231.449,66.028l-174.422-364.198
							C1633.748,1583.758,1847.547,1388.768,1911.595,1474.119z"/>
						
							<linearGradient id="SVGID_00000101823756250532545390000006594509046746517950_" gradientUnits="userSpaceOnUse" x1="-1685.1111" y1="2163.1985" x2="-1107.6256" y2="2163.1985" gradientTransform="matrix(0.7999 -0.6002 0.6002 0.7999 1683.0059 -865.0446)">
							<stop  offset="0" style="stop-color:#09005D"/>
							<stop  offset="1" style="stop-color:#1A0F91"/>
						</linearGradient>
						<path style="fill:url(#SVGID_00000101823756250532545390000006594509046746517950_);" d="M1725.612,1643.546l73.663,190.771
							c1.605,4.156,3.818,8.003,6.595,11.488c12.366,15.517,48.329,52.076,88.155,12.953c30.171-29.638,58.613-56.883,85.706-70.5
							c23.874-11.999,52.79,1.083,60.401,26.696c11.409,38.39,29.376,104.311,38.756,167.144
							c3.39,22.707-11.487,44.168-33.959,48.87c-47.114,9.857-129.33,24.243-201.364,22.557c-15.972-0.374-30.305-9.79-37.388-24.11
							c-26.656-53.886-93.608-187.647-118.804-223.281c-23.162-32.757-75.463-32.57-102.125-30.059
							c-12.381,1.166-24.593-2.974-33.66-11.486c-21.263-19.961-49.754-60.198-9.181-110.182
							c14.11-17.383,12.932-42.102-2.601-58.226c-22.454-23.309-41.053-60.519-5.59-107.261
							c37.572-49.525,88.363-46.841,122.594-37.013c16.695,4.793,33.727-2.521,44.693-15.992c3.195-3.925,7.73-6.929,14.142-7.963
							c20.917-3.371,36.996-19.466,37.594-40.643c0.885-31.303,14.4-67.686,66.049-85.426
							c100.936-34.668,167.322,61.888,175.751,135.134c8.429,73.246-103.142,104.612-169.374,101.582
							c-45.901-2.099-79.754,39.996-96.213,66.037C1722.083,1616.294,1720.646,1630.684,1725.612,1643.546z"/>
						
							<linearGradient id="SVGID_00000143593086881313285020000000731789861815970440_" gradientUnits="userSpaceOnUse" x1="-2023.95" y1="2517.4258" x2="-1636.1866" y2="2119.5911" gradientTransform="matrix(0.7999 -0.6002 0.6002 0.7999 1683.0059 -865.0446)">
							<stop  offset="0" style="stop-color:#FEBBBA"/>
							<stop  offset="1" style="stop-color:#FF928E"/>
						</linearGradient>
						<path style="fill:url(#SVGID_00000143593086881313285020000000731789861815970440_);" d="M1716.058,1878.282
							c0,0-20.164-126.998-73.376-131.7c-53.212-4.702-103.558,40.382-48.753,110.399
							C1662.1,1944.073,1716.058,1878.282,1716.058,1878.282z"/>
					</g>
					
						<linearGradient id="SVGID_00000028309386143353972040000014295049817826613673_" gradientUnits="userSpaceOnUse" x1="572.514" y1="2951.353" x2="1691.7811" y2="1960.1963">
						<stop  offset="0" style="stop-color:#4F52FF"/>
						<stop  offset="1" style="stop-color:#4042E2"/>
					</linearGradient>
					<path style="fill:url(#SVGID_00000028309386143353972040000014295049817826613673_);" d="M1140.078,2021.227
						c0,0-462.754,295.14-564.061,637.798s125.428,410.074,341.309,440.428l16.246-261.65c0,0-151.231,0-54.758-143.022
						c96.473-143.022,355.719-238.37,355.719-238.37S1891.389,1836.647,1140.078,2021.227z"/>
					
						<linearGradient id="SVGID_00000103954692065247573790000012324753991274012850_" gradientUnits="userSpaceOnUse" x1="1149.2041" y1="-27.6953" x2="1068.2932" y2="1941.1337">
						<stop  offset="0" style="stop-color:#09005D"/>
						<stop  offset="1" style="stop-color:#1A0F91"/>
					</linearGradient>
					<path style="fill:url(#SVGID_00000103954692065247573790000012324753991274012850_);" d="M933.572,2843.762
						c-2.648,0-65.151-0.457-86.223-40.094c-14.38-27.05-5.459-64.807,26.526-112.219
						c96.442-142.976,347.941-236.712,358.603-240.631c3.09-1.135,6.518,0.451,7.647,3.536c1.135,3.088-0.448,6.515-3.533,7.65
						c-2.578,0.949-258.564,96.346-352.835,236.109c-29.314,43.458-38.025,77.081-25.897,99.934
						c17.686,33.326,75.137,33.797,75.718,33.797c3.288,0.006,5.954,2.674,5.954,5.965
						C939.525,2841.096,936.86,2843.762,933.572,2843.762z"/>
					<g>
						
							<linearGradient id="SVGID_00000143588615030807337360000014702878710472128923_" gradientUnits="userSpaceOnUse" x1="1582.0287" y1="-513.6229" x2="1841.0428" y2="-513.6229" gradientTransform="matrix(0.0716 -0.9974 0.9974 0.0716 1854.1215 4752.749)">
							<stop  offset="0" style="stop-color:#FEBBBA"/>
							<stop  offset="1" style="stop-color:#FF928E"/>
						</linearGradient>
						<path style="fill:url(#SVGID_00000143588615030807337360000014702878710472128923_);" d="M917.326,3099.452
							c0,0-67.601-111.737,21.43-245.239l597.626,98.948c0,0,286.068-48.405,299.75-47.423
							c13.682,0.983,200.385,115.983,200.385,115.983s-6.27,13.334-50.701,10.875c-44.431-2.46-15.265,5.373-15.265,5.373
							l-1.611,22.443c0,0-30.928,7.09-55.735-19.303c-24.807-26.392-93.767-39.168-93.767-39.168s-146.583,108.309-290.572,55.905
							L917.326,3099.452z"/>
					</g>
				</g>
				<g>
					<g>
						
							<linearGradient id="SVGID_00000018942995603271997430000015495059909268212382_" gradientUnits="userSpaceOnUse" x1="1751.3737" y1="4061.9631" x2="2566.8247" y2="4061.9631">
							<stop  offset="0" style="stop-color:#9CFFFB"/>
							<stop  offset="1" style="stop-color:#9BFFFA"/>
						</linearGradient>
						<path style="fill:url(#SVGID_00000018942995603271997430000015495059909268212382_);" d="M1786.861,4984.661
							c-4.68,0-9.434-0.959-14.01-2.971c-18.008-7.936-26.327-29.322-18.58-47.767l744.44-1772.665
							c7.748-18.439,28.603-26.954,46.634-19.031c18.008,7.935,26.327,29.322,18.58,47.767l-744.441,1772.664
							C1813.709,4976.417,1800.617,4984.661,1786.861,4984.661z"/>
						
							<linearGradient id="SVGID_00000064347485866814279500000008388982998481697176_" gradientUnits="userSpaceOnUse" x1="1845.5374" y1="4061.9597" x2="2660.9883" y2="4061.9597">
							<stop  offset="0" style="stop-color:#9CFFFB"/>
							<stop  offset="1" style="stop-color:#9BFFFA"/>
						</linearGradient>
						<path style="fill:url(#SVGID_00000064347485866814279500000008388982998481697176_);" d="M2625.5,4984.661
							c-13.756,0-26.847-8.238-32.624-22.002l-744.441-1772.664c-7.747-18.445,0.572-39.832,18.58-47.767
							c17.996-7.935,38.881,0.58,46.634,19.031l744.44,1772.665c7.748,18.445-0.571,39.832-18.579,47.767
							C2634.94,4983.702,2630.18,4984.661,2625.5,4984.661z"/>
					</g>
					
						<linearGradient id="SVGID_00000027597163975578893410000015922909887348374926_" gradientUnits="userSpaceOnUse" x1="898.0034" y1="4678.9868" x2="3223.2529" y2="1929.3533">
						<stop  offset="0" style="stop-color:#09005D"/>
						<stop  offset="1" style="stop-color:#1A0F91"/>
					</linearGradient>
					<path style="fill:url(#SVGID_00000027597163975578893410000015922909887348374926_);" d="M3176.16,3108.326
						c1.082-10.988-0.391-22.354-4.015-30.986c-3.624-8.634-9.02-13.634-14.715-13.634H1228.457
						c-7.489,0-14.461,7.502-18.495,19.903c-4.035,12.401-4.576,27.988-1.435,41.351l20.904,88.927
						c4.786,20.365,15.158,33.403,26.571,33.403h1888.194c10.616,0,19.742-14.797,21.758-35.286L3176.16,3108.326z"/>
				</g>
			</g>
		</g>
		<g>
			<path style="fill:#BDD0FB;" d="M2341.811,967.23c-252.536,120.563-418.447,371.466-222.345,359.755
				c368.162-21.987,119.677,183.065,313.302,177.034c193.625-6.031,493.342-47.328,689.453-250.542
				c196.111-203.214,5.484-251.783-74.004-243.916C2786.508,1035.463,3132.84,589.587,2341.811,967.23z"/>
			<path style="fill:#BDD0FB;" d="M2256.256,1603.865c0.527,28.596,21.569,75.534,68.821,74.663
				c47.251-0.871,102.819-49.221,102.292-77.817c-0.527-28.596-39.259-51.072-86.511-50.2
				C2293.606,1551.382,2255.729,1575.27,2256.256,1603.865z"/>
			<path style="fill:#BDD0FB;" d="M2185.324,1719.116c0.255,13.846,12.434,24.851,27.203,24.579
				c14.768-0.272,43.977-14.992,43.721-28.839c-0.255-13.846-18.572-27.69-33.34-27.418
				C2208.14,1687.71,2185.069,1705.269,2185.324,1719.116z"/>
		</g>
		<g>
			
				<linearGradient id="SVGID_00000177443307796571965640000004684589882997236620_" gradientUnits="userSpaceOnUse" x1="2740.6079" y1="1120.0411" x2="3152.8176" y2="739.1957">
				<stop  offset="0" style="stop-color:#09005D"/>
				<stop  offset="1" style="stop-color:#1A0F91"/>
			</linearGradient>
			<path style="fill:url(#SVGID_00000177443307796571965640000004684589882997236620_);" d="M2730.416,1194.378
				c-0.387-4.797-5.287-8.95-13.584-12.279c9.017-4.972,14.005-10.301,13.584-15.528c-1.276-15.816-51.363-24.683-111.874-19.804
				c-60.511,4.878-108.531,21.655-107.255,37.471c0.386,4.797,5.287,8.95,13.584,12.279c-9.017,4.972-14.006,10.302-13.584,15.528
				c0.386,4.797,5.287,8.949,13.584,12.278c-9.017,4.973-14.006,10.302-13.584,15.529c0.386,4.797,5.287,8.949,13.584,12.278
				c-9.017,4.972-14.006,10.302-13.584,15.529c0.564,6.995,10.688,12.627,27.026,16.315c-0.211,5.169-0.094,10.835,0.414,17.09
				c2.367,29.144,35.149,51.995,78.507,51.995c43.359,0,80.886-31.156,81.312-60.393c0.104-7.166-0.201-13.472-0.849-19.077
				c20.746-6.928,33.381-15.391,32.719-23.598c-0.387-4.797-5.287-8.95-13.584-12.279c9.017-4.973,14.005-10.302,13.584-15.528
				c-0.387-4.797-5.287-8.95-13.584-12.279C2725.848,1204.934,2730.836,1199.605,2730.416,1194.378z"/>
			<g>
				
					<linearGradient id="SVGID_00000164508216405154258570000014032542569950173084_" gradientUnits="userSpaceOnUse" x1="2504.9641" y1="1535.868" x2="3091.5693" y2="194.095">
					<stop  offset="0" style="stop-color:#4F52FF"/>
					<stop  offset="1" style="stop-color:#4042E2"/>
				</linearGradient>
				<path style="fill:url(#SVGID_00000164508216405154258570000014032542569950173084_);" d="M2590.542,1290.269
					c-17.971,0-34.415-1.322-48-3.924c-0.788-0.15-1.305-0.912-1.154-1.7c0.151-0.787,0.909-1.304,1.7-1.154
					c21.26,4.07,49.655,4.968,79.955,2.524c24.794-2,47.981-5.998,67.055-11.565c0.772-0.225,1.577,0.217,1.802,0.988
					c0.225,0.771-0.218,1.578-0.988,1.803c-19.26,5.62-42.648,9.657-67.635,11.671
					C2612.021,1289.82,2601.022,1290.269,2590.542,1290.269z"/>
				
					<linearGradient id="SVGID_00000181783671486238873990000008065794529800646838_" gradientUnits="userSpaceOnUse" x1="2497.3062" y1="1532.5198" x2="3083.9104" y2="190.7485">
					<stop  offset="0" style="stop-color:#4F52FF"/>
					<stop  offset="1" style="stop-color:#4042E2"/>
				</linearGradient>
				<path style="fill:url(#SVGID_00000181783671486238873990000008065794529800646838_);" d="M2590.844,1262.437
					c-23.349,0-44.215-2.196-58.933-6.387c-0.772-0.221-1.219-1.024-1-1.796c0.22-0.772,1.021-1.219,1.796-1
					c20.972,5.971,54.742,7.823,90.335,4.954c35.209-2.839,68.044-9.984,87.837-19.112c0.729-0.335,1.593-0.018,1.929,0.711
					c0.335,0.729,0.018,1.593-0.711,1.928c-20.086,9.264-53.29,16.505-88.82,19.369
					C2612.189,1261.999,2601.268,1262.437,2590.844,1262.437z"/>
				
					<linearGradient id="SVGID_00000066489032790929559050000006229019570698776195_" gradientUnits="userSpaceOnUse" x1="2485.4675" y1="1527.3447" x2="3072.071" y2="185.5749">
					<stop  offset="0" style="stop-color:#4F52FF"/>
					<stop  offset="1" style="stop-color:#4042E2"/>
				</linearGradient>
				<path style="fill:url(#SVGID_00000066489032790929559050000006229019570698776195_);" d="M2590.545,1234.651
					c-25.21,0-47.272-2.579-62.121-7.476c-0.763-0.252-1.176-1.073-0.925-1.835c0.251-0.763,1.07-1.177,1.835-0.925
					c20.664,6.813,55.695,9.05,93.708,5.987c35.206-2.839,68.042-9.984,87.837-19.113c0.729-0.334,1.593-0.017,1.929,0.711
					c0.335,0.729,0.018,1.593-0.711,1.929c-20.089,9.264-53.292,16.505-88.82,19.37
					C2612.018,1234.206,2601.01,1234.651,2590.545,1234.651z"/>
				
					<linearGradient id="SVGID_00000054224232293587410370000016194261673130935724_" gradientUnits="userSpaceOnUse" x1="2479.7319" y1="1524.8365" x2="3066.3352" y2="183.0672">
					<stop  offset="0" style="stop-color:#4F52FF"/>
					<stop  offset="1" style="stop-color:#4042E2"/>
				</linearGradient>
				<path style="fill:url(#SVGID_00000054224232293587410370000016194261673130935724_);" d="M2590.74,1206.83
					c-19.998,0-38.187-1.616-52.328-4.758c-0.783-0.174-1.278-0.95-1.104-1.734c0.174-0.784,0.953-1.279,1.734-1.104
					c21.263,4.725,51.881,5.949,84,3.359c34.893-2.813,67.561-9.88,87.388-18.906c0.729-0.334,1.592-0.01,1.925,0.721
					c0.333,0.73,0.01,1.592-0.721,1.924c-20.117,9.158-53.148,16.319-88.357,19.157
					C2612.151,1206.388,2601.198,1206.83,2590.74,1206.83z"/>
			</g>
			
				<linearGradient id="SVGID_00000039093319728145951380000006336920777620295580_" gradientUnits="userSpaceOnUse" x1="2625.551" y1="638.2792" x2="2590.1538" y2="1361.3828">
				<stop  offset="0" style="stop-color:#FF928E"/>
				<stop  offset="1" style="stop-color:#FE7062"/>
			</linearGradient>
			<path style="fill:url(#SVGID_00000039093319728145951380000006336920777620295580_);" d="M2470.673,1054.013
				c-7.35-26.03-19.833-50.357-36.645-71.545c-36.023-45.4-94.79-137.73-102.023-263.745
				c-10.522-183.294,152.039-275.061,300.378-262.603c148.339,12.458,294.712,122.908,278.688,293.426
				c-9.86,104.921-68.586,184.505-112.31,230.209c-27.765,29.023-47.57,64.57-58.291,103.277
				c-13.122,47.376-44.349,106.417-118.572,110.016C2525.856,1197.705,2485.966,1108.182,2470.673,1054.013z"/>
			
				<linearGradient id="SVGID_00000108299619269175468550000017515619640829725334_" gradientUnits="userSpaceOnUse" x1="3300.4758" y1="438.3959" x2="2445.8982" y2="1186.783">
				<stop  offset="0" style="stop-color:#E1473D"/>
				<stop  offset="1" style="stop-color:#E9605A"/>
			</linearGradient>
			<path style="fill:url(#SVGID_00000108299619269175468550000017515619640829725334_);" d="M2646.432,1156.495l51.904-337.586
				c1.072-6.974,4.505-11.658,7.667-10.461c3.161,1.197,4.855,7.821,3.782,14.795c-0.028,0.186-0.067,0.415-0.098,0.598
				l-59.123,334.45c-0.445,2.515-1.722,4.103-2.853,3.547C2646.614,1161.299,2646.06,1158.931,2646.432,1156.495z"/>
			
				<linearGradient id="SVGID_00000174601597172973654350000010248449046822119345_" gradientUnits="userSpaceOnUse" x1="3252.2593" y1="383.3383" x2="2397.6826" y2="1131.7244">
				<stop  offset="0" style="stop-color:#E1473D"/>
				<stop  offset="1" style="stop-color:#E9605A"/>
			</linearGradient>
			<path style="fill:url(#SVGID_00000174601597172973654350000010248449046822119345_);" d="M2592.554,1159.176L2540.65,821.59
				c-1.072-6.974-4.505-11.658-7.667-10.461c-3.162,1.197-4.855,7.821-3.783,14.795c0.029,0.186,0.067,0.416,0.099,0.598
				l59.123,334.449c0.444,2.515,1.722,4.103,2.853,3.547C2592.372,1163.98,2592.927,1161.612,2592.554,1159.176z"/>
			<path style="opacity:0.79;fill:#FFFFFF;" d="M2697.963,789.924c-1.318-2.119-4.368-2.912-6.813-1.769l-28.901,13.504
				l-10.032-28.584c-0.531-1.491-1.761-2.814-3.515-3.536c-3.324-1.37-7.301-0.145-8.881,2.737l-0.051,0.093l-23.768,43.337
				l-22.056-61.691l-0.036-0.102c-0.54-1.506-1.678-2.859-3.338-3.765c-3.698-2.019-8.584-1.056-10.913,2.149l-33.228,45.743
				c-1.351,1.875-0.886,4.387,1.171,5.773c2.196,1.479,5.36,1.135,7.066-0.768l29.256-32.635l26.341,58.686l0.02,0.045
				c0.422,0.939,1.217,1.758,2.32,2.275c2.472,1.157,5.558,0.359,6.894-1.784l25.42-40.791l9.568,20.632l0.084,0.183
				c0.069,0.148,0.148,0.294,0.238,0.438c1.317,2.118,4.365,2.909,6.807,1.768l34.306-16.029
				C2698.367,794.688,2699.281,792.044,2697.963,789.924z"/>
			<path style="opacity:0.79;fill:#FFFFFF;" d="M2799.893,934.703c-1.047,0-2.104-0.324-3.009-0.996
				c-2.245-1.664-2.713-4.833-1.047-7.075c8.869-11.953,17.001-24.307,24.172-36.72c1.393-2.423,4.494-3.248,6.907-1.85
				c2.42,1.396,3.246,4.489,1.85,6.907c-7.361,12.749-15.707,25.43-24.81,37.692
				C2802.965,933.997,2801.437,934.703,2799.893,934.703z"/>
			<path style="opacity:0.79;fill:#FFFFFF;" d="M2842.59,861.425c-0.672,0-1.356-0.135-2.011-0.42
				c-2.561-1.113-3.737-4.091-2.624-6.654c55.03-126.729,7.536-233.572,7.049-234.637c-1.159-2.538-0.043-5.539,2.496-6.7
				c2.535-1.164,5.538-0.051,6.7,2.489c0.507,1.103,49.927,111.853-6.967,242.877
				C2846.406,860.286,2844.543,861.425,2842.59,861.425z"/>
		</g>
		<g>
			<g>
				<g>
					<path style="fill:#91B3FA;" d="M2804.367,2098.605c-40.966-97.636-189.375-393.648-451.908-302.226
						c-3.865,1.346-3.416,6.973,0.608,7.719c57.889,10.729,272.391,64.911,444.41,298.382
						C2800.28,2106.283,2806.195,2102.962,2804.367,2098.605z"/>
					<path style="fill:#91B3FA;" d="M2802.119,2104.711c-59.021-55.63-234.76-270.846-468.146-172.492
						c-2.564,1.08-2.048,4.878,0.719,5.17c57.681,6.095,344.055,42.369,466.305,172.043
						C2804.238,2112.87,2805.557,2107.951,2802.119,2104.711z"/>
					<path style="fill:#91B3FA;" d="M2796.577,2080.283c-5.605-73.594-38.491-351.441-217.431-408.754
						c-1.305-0.418-2.422,1.069-1.63,2.187c21.558,30.405,178.432,255.075,216.267,407.011
						C2794.205,2082.422,2796.71,2082.024,2796.577,2080.283z"/>
					<path style="fill:#91B3FA;" d="M2814.386,2164.606c1.574,0.854,3.107-1.18,1.839-2.444
						c-31.61-31.49-162.485-147.208-328.646-90.227C2299.334,2136.49,2628.939,2063.99,2814.386,2164.606z"/>
					<path style="fill:#91B3FA;" d="M2810.043,2106.952c-0.379,5.504-8.202,6.158-9.426,0.778
						c-19.846-87.278-61.915-327.958,60.522-389.177C3006.057,1646.094,2829.727,1821.555,2810.043,2106.952z"/>
					<path style="fill:#91B3FA;" d="M2801.587,2106.342c20.571-53.596,99.865-220.009,264.884-130.091
						c2.784,1.517,1.875,5.752-1.289,5.952c-37.127,2.335-160.569,18.354-258.275,127.312
						C2804.562,2112.128,2800.329,2109.621,2801.587,2106.342z"/>
					<path style="fill:#91B3FA;" d="M2806.042,2119.794c7.585-33.096,47.063-99.473,247.93-38.675
						c1.204,0.365,0.888,2.173-0.364,2.043c-39.472-4.1-172.844-13.162-238.218,42.344
						C2811.191,2129.071,2804.812,2125.164,2806.042,2119.794z"/>
				</g>
				<path style="fill:#91B3FA;" d="M2863.85,3025.626l0.073-6.778l-0.002-7.281l-0.108-14.584l-0.191-29.175l-0.849-58.353
					c-0.52-38.897-1.289-77.788-2.114-116.667c-1.766-77.757-3.997-155.484-7.549-233.126
					c-3.483-77.641-8.282-155.208-15.754-232.477c-3.831-38.621-8.446-77.155-14.667-115.411
					c-6.107-38.254-13.979-76.318-26.764-112.864l3.467-1.417c7.61,18.036,14.275,36.541,19.291,55.451l3.919,14.151
					c1.232,4.734,2.29,9.503,3.445,14.255l3.396,14.277l3.009,14.347c7.76,38.32,13.759,76.954,18.464,115.703
					c4.823,38.74,8.39,77.602,11.568,116.477c2.969,38.888,5.198,77.82,7.139,116.755c1.687,38.945,2.947,77.901,3.856,116.86
					c0.61,38.963,1.206,77.924,0.996,116.885c-0.044,38.96-0.63,77.916-1.607,116.861l-2.072,58.406l-1.281,29.196l-0.872,14.598
					l-0.489,7.306c-0.214,2.459-0.27,4.729-0.751,7.792L2863.85,3025.626z"/>
				<g>
					<path style="fill:#91B3FA;" d="M2931.759,2337.725c27.443-65.406,126.861-263.701,302.729-202.458
						c2.589,0.901,2.288,4.671-0.407,5.171c-38.78,7.187-182.473,43.483-297.707,199.883
						C2934.497,2342.868,2930.534,2340.643,2931.759,2337.725z"/>
					<path style="fill:#91B3FA;" d="M2933.264,2341.815c39.538-37.266,157.264-181.437,313.607-115.551
						c1.718,0.724,1.372,3.267-0.481,3.463c-38.64,4.083-230.48,28.383-312.374,115.25
						C2931.845,2347.28,2930.961,2343.985,2933.264,2341.815z"/>
					<path style="fill:#91B3FA;" d="M2936.977,2325.45c3.755-49.299,25.785-235.427,145.656-273.821
						c0.874-0.28,1.622,0.716,1.092,1.465c-14.441,20.368-119.53,170.872-144.875,272.654
						C2938.566,2326.883,2936.888,2326.617,2936.977,2325.45z"/>
					<path style="fill:#91B3FA;" d="M2925.046,2381.938c-1.054,0.572-2.081-0.791-1.232-1.637
						c21.175-21.095,108.848-98.614,220.157-60.442C3270.076,2363.103,3049.276,2314.536,2925.046,2381.938z"/>
					<path style="fill:#91B3FA;" d="M2927.956,2343.316c0.254,3.687,5.495,4.125,6.314,0.521
						c13.295-58.467,41.476-219.697-40.544-260.707C2796.648,2034.591,2914.77,2152.131,2927.956,2343.316z"/>
					<path style="fill:#91B3FA;" d="M2933.62,2342.907c-13.78-35.904-66.898-147.382-177.443-87.147
						c-1.865,1.016-1.256,3.854,0.863,3.987c24.871,1.564,107.564,12.295,173.017,85.285
						C2931.628,2346.783,2934.464,2345.104,2933.62,2342.907z"/>
					<path style="fill:#91B3FA;" d="M2930.636,2351.919c-5.081-22.17-31.527-66.636-166.086-25.908
						c-0.807,0.244-0.594,1.455,0.244,1.368c26.442-2.746,115.787-8.817,159.58,28.366
						C2927.187,2358.134,2931.46,2355.516,2930.636,2351.919z"/>
				</g>
				<path style="fill:#91B3FA;" d="M2904.717,3026.811c-0.394-2.456-0.409-4.108-0.568-5.958l-0.349-5.468l-0.618-10.92
					c-0.408-7.278-0.667-14.557-0.949-21.836l-1.446-43.679c-0.956-29.124-1.031-58.255-1.22-87.39
					c-0.059-29.134-0.114-58.279,0.449-87.418c0.609-29.136,1.31-58.281,2.568-87.411c1.303-29.129,2.848-58.257,4.9-87.363
					c2.242-29.094,4.831-58.18,8.43-87.177l2.802-21.737l3.314-21.68c2.339-14.437,4.801-28.859,7.94-43.172
					c1.431-7.176,3.051-14.324,4.871-21.429c0.907-3.552,1.742-7.114,2.707-10.651l3.063-10.575
					c3.955-14.113,9.018-27.976,14.974-41.391l3.467,1.417c-4.417,13.774-8.422,27.616-11.333,41.795l-2.254,10.596
					c-0.697,3.545-1.265,7.125-1.905,10.683l-1.94,10.666l-1.69,10.723c-1.116,7.149-2.24,14.291-3.129,21.483
					c-0.936,7.183-2.071,14.324-2.832,21.536c-1.725,14.385-3.254,28.796-4.756,43.214c-5.552,57.728-9.583,115.673-12.44,173.708
					c-2.825,58.038-4.764,116.147-6.257,174.288c-0.772,29.071-0.984,58.151-1.598,87.236l-0.533,43.631l-0.134,21.814
					l-0.046,10.901l0.063,10.378L2904.717,3026.811z"/>
				<g>
					<path style="fill:#91B3FA;" d="M2736.599,2458.701c-35.064-57.235-155.027-228.111-291.91-141.634
						c-2.015,1.273-1.073,4.781,1.288,4.812c33.966,0.454,161.59,11.257,287.21,140.023
						C2735.235,2464,2738.164,2461.255,2736.599,2458.701z"/>
					<path style="fill:#91B3FA;" d="M2736.079,2462.806c-40.104-28.71-165.586-145.533-285.18-57.86
						c-1.314,0.963-0.558,3.307,1.038,3.189c33.281-2.451,199.251-10.823,284.087,57.777
						C2738.273,2467.731,2738.415,2464.478,2736.079,2462.806z"/>
					<path style="fill:#91B3FA;" d="M2729.961,2447.971c-12.175-45.903-64.753-217.924-172.702-234.593
						c-0.787-0.121-1.235,0.941-0.651,1.561c15.883,16.862,131.883,141.72,171.832,233.618
						C2728.885,2449.583,2730.25,2449.058,2729.961,2447.971z"/>
					<path style="fill:#91B3FA;" d="M2750.334,2499.323c0.992,0.368,1.608-1.086,0.738-1.746
						c-21.686-16.449-109.678-75.286-196.421-21.11C2456.379,2537.843,2633.411,2455.995,2750.334,2499.323z"/>
					<path style="fill:#91B3FA;" d="M2740.823,2463.356c0.46,3.521-3.873,4.789-5.222,1.522
						c-21.884-52.996-75.089-200.522-13.526-252.597C2794.941,2150.644,2716.972,2280.817,2740.823,2463.356z"/>
					<path style="fill:#91B3FA;" d="M2735.979,2463.895c5.039-36.124,29.383-149.973,133.473-111.176
						c1.756,0.655,1.762,3.431,0.002,3.903c-20.656,5.533-88.321,29.15-130.086,108.696
						C2738.365,2467.227,2735.671,2466.105,2735.979,2463.895z"/>
					<path style="fill:#91B3FA;" d="M2740.14,2471.91c0.225-21.748,14.363-68.017,135.107-51.542
						c0.724,0.099,0.767,1.276,0.045,1.33c-22.766,1.723-99.104,10.572-129.179,52.8
						C2744.18,2477.212,2740.103,2475.439,2740.14,2471.91z"/>
				</g>
				<path style="fill:#91B3FA;" d="M2882.896,3038.129l-3.412-17.951l-3.633-18.401l-7.456-36.769l-15.402-73.431
					c-5.245-24.451-10.656-48.863-16.229-73.234c-5.429-24.402-11.041-48.759-16.847-73.066
					c-11.674-48.596-24.405-96.915-38.187-144.863l-5.254-17.952l-5.463-17.879c-3.654-11.911-7.368-23.814-11.49-35.555
					c-8.269-23.463-16.841-46.877-28.362-68.885l3.209-1.929c6.823,10.628,12.951,21.729,18.299,33.134
					c2.75,5.677,5.48,11.367,7.847,17.197c2.493,5.786,4.892,11.607,7.129,17.483c9.227,23.413,17.431,47.188,24.774,71.199
					c14.739,48.013,26.763,96.728,38.18,145.529c5.646,24.417,11.094,48.874,16.355,73.369c5.048,24.54,9.929,49.11,14.643,73.709
					c4.701,24.602,9.325,49.217,13.443,73.925l6.135,37.066l2.892,18.566l1.348,9.304l0.646,4.667
					c0.187,1.587,0.452,2.972,0.561,5.136L2882.896,3038.129z"/>
			</g>
			<g>
				
					<linearGradient id="SVGID_00000074437513195545849220000002746373163667702938_" gradientUnits="userSpaceOnUse" x1="2959.0605" y1="3275.7344" x2="2899.7029" y2="2962.7573">
					<stop  offset="0" style="stop-color:#4F52FF"/>
					<stop  offset="1" style="stop-color:#4042E2"/>
				</linearGradient>
				<path style="fill:url(#SVGID_00000074437513195545849220000002746373163667702938_);" d="M2795.942,2794.764h159.89
					c10.48,0,18.234,15.793,15.877,32.335c-10.229,71.795-22.491,144.641-47.576,218.585c-4.634,13.657-13.456,22.221-23.076,22.221
					h-52.174c-9.475,0-18.168-8.433-22.659-21.948c-20.097-60.5-39.433-132.619-48.98-214.471
					C2775.022,2812.436,2783.974,2794.764,2795.942,2794.764z"/>
			</g>
		</g>
	</g>
</g>
</svg>
